<svg xmlns="http://www.w3.org/2000/svg" viewBox="0 0 149.14 149.14"><defs><style>.cls-1{fill:#1a0f0a;stroke:#ee7927;stroke-miterlimit:10;stroke-width:7.84px;}.cls-2{fill:#ee7927;}</style></defs><title>illustrator</title><g id="Calque_2" data-name="Calque 2"><g id="Calque_2-2" data-name="Calque 2"><g id="Compétences"><circle class="cls-1" cx="74.57" cy="74.57" r="70.65"/><path class="cls-2" d="M65.7,44.62c1.87,0,3.74,0,5.6,0,.77,0,1.06.25,1.29.94q9,26.94,18.08,53.86c.44,1.31.88,2.63,1.31,3.94.34,1,.23,1.18-.81,1.19-3,0-5.93,0-8.89,0a1.36,1.36,0,0,1-1.54-1.12c-1.51-4.74-3.08-9.46-4.6-14.19-.17-.53-.37-.75-1-.75q-9.33,0-18.66,0c-.59,0-.8.2-1,.74-1.45,4.74-2.94,9.45-4.38,14.19a1.33,1.33,0,0,1-1.53,1.12c-2.64-.05-5.29,0-7.93,0-1.1,0-1.2-.15-.85-1.23l6-18.44Q52.42,67.79,58,50.73a17.84,17.84,0,0,0,.93-5.25c0-.65.26-.88.92-.87C61.8,44.64,63.75,44.62,65.7,44.62Zm.09,8.93C63.6,62.16,61,70.46,58.45,78.87H73.22C70.8,70.44,68,62.16,65.79,53.55Z"/><path class="cls-2" d="M107.67,83.21v20.18c0,1.13,0,1.14-1.17,1.14H98.65c-1,0-1.07-.11-1.07-1q0-20.3,0-40.58c0-.8.27-1,1-1,2.66,0,5.33,0,8,0,1.08,0,1.08,0,1.08,1.12Z"/><path class="cls-2" d="M97.07,50.47a5.39,5.39,0,0,1,5.7-5.72,5.32,5.32,0,0,1,5.7,5.61,5.37,5.37,0,0,1-5.78,5.79A5.29,5.29,0,0,1,97.07,50.47Z"/></g></g></g></svg>