<svg xmlns="http://www.w3.org/2000/svg" viewBox="0 0 149.14 149.14"><defs><style>.cls-1{fill:#210811;stroke:#e8478b;stroke-miterlimit:10;stroke-width:7.84px;}.cls-2{fill:#e8478b;}</style></defs><title>indesign</title><g id="Calque_2" data-name="Calque 2"><g id="Calque_2-2" data-name="Calque 2"><g id="Compétences"><circle class="cls-1" cx="74.57" cy="74.57" r="70.65"/><path class="cls-2" d="M101.78,71.82q0,12.41,0,24.83c0,1.18.1,2.36.18,3.54a.91.91,0,0,1-.63,1,34.72,34.72,0,0,1-17,2.8,20.67,20.67,0,0,1-8.17-2.34A16.6,16.6,0,0,1,68,92.07a24.32,24.32,0,0,1,.11-17C70.75,68.24,75.91,64.18,83,62.52A25.91,25.91,0,0,1,91.7,62c.55.06.45-.24.45-.55v-7c0-2.89,0-5.78,0-8.67,0-.58.19-.78.78-.78,2.62,0,5.25,0,7.88,0,.76,0,1,.2,1,1,0,8.62,0,17.25,0,25.87Zm-9.63,11c0-3.91,0-7.83,0-11.75a.72.72,0,0,0-.67-.83A14.24,14.24,0,0,0,89.24,70a11.57,11.57,0,0,0-11.59,6.8,16.39,16.39,0,0,0-.89,9.73,10.63,10.63,0,0,0,3.65,6.78c3.37,2.71,7.23,2.9,11.27,2,.54-.12.47-.46.47-.83Z"/><path class="cls-2" d="M57.62,74.58V102.8c0,1.19,0,1.19-1.19,1.19h-8c-1.19,0-1.22,0-1.22-1.25V55.29c0-3.1,0-6.21,0-9.31,0-.75.25-1,1-1,2.81,0,5.62,0,8.43,0,1,0,1,0,1,1V74.58Z"/></g></g></g></svg>