<svg xmlns="http://www.w3.org/2000/svg" viewBox="0 0 74.58 74.58"><defs><style>.cls-1{fill:#163019;stroke:#64b458;stroke-miterlimit:10;stroke-width:3.92px;}.cls-2{fill:#64b458;}</style></defs><title>node</title><g id="Calque_2" data-name="Calque 2"><g id="Calque_2-2" data-name="Calque 2"><g id="Compétences"><circle class="cls-1" cx="37.29" cy="37.29" r="35.33"/><path class="cls-2" d="M37.3,58.69a3.34,3.34,0,0,1-1.65-.44l-5.23-3.1c-.78-.44-.4-.59-.14-.68a10.84,10.84,0,0,0,2.36-1.08.37.37,0,0,1,.39,0l4,2.38a.51.51,0,0,0,.48,0l15.68-9a.48.48,0,0,0,.24-.42V28.23a.5.5,0,0,0-.24-.43l-15.68-9a.46.46,0,0,0-.48,0l-15.67,9a.52.52,0,0,0-.25.43V46.32a.48.48,0,0,0,.25.42l4.29,2.48c2.33,1.17,3.76-.2,3.76-1.59V29.78a.45.45,0,0,1,.45-.46h2a.46.46,0,0,1,.45.46V47.64c0,3.11-1.7,4.9-4.64,4.9a6.68,6.68,0,0,1-3.62-1L20,49.18a3.29,3.29,0,0,1-1.65-2.86V28.23A3.29,3.29,0,0,1,20,25.37l15.69-9a3.45,3.45,0,0,1,3.3,0l15.68,9.06a3.3,3.3,0,0,1,1.64,2.85v18.1a3.3,3.3,0,0,1-1.64,2.85L39,58.24a3.29,3.29,0,0,1-1.65.44"/><path class="cls-2" d="M42.14,46.22c-6.86,0-8.3-3.15-8.3-5.79A.46.46,0,0,1,34.3,40h2a.45.45,0,0,1,.45.38c.31,2.06,1.22,3.11,5.37,3.11,3.3,0,4.71-.75,4.71-2.5,0-1-.41-1.76-5.54-2.26-4.29-.43-7-1.37-7-4.81,0-3.16,2.67-5,7.14-5,5,0,7.51,1.75,7.83,5.49a.45.45,0,0,1-.13.35.45.45,0,0,1-.33.15h-2a.46.46,0,0,1-.44-.36c-.49-2.17-1.67-2.86-4.89-2.86-3.61,0-4,1.25-4,2.2,0,1.14.49,1.47,5.36,2.11s7.11,1.55,7.11,4.93-2.85,5.38-7.82,5.38"/></g></g></g></svg>