<svg xmlns="http://www.w3.org/2000/svg" viewBox="0 0 149.14 149.14"><defs><style>.cls-1{fill:#201c3e;stroke:#54c2e9;stroke-miterlimit:10;stroke-width:7.84px;}.cls-2{fill:#54c2e9;}</style></defs><title>photoshop</title><g id="Calque_2" data-name="Calque 2"><g id="Calque_2-2" data-name="Calque 2"><g id="Compétences"><circle class="cls-1" cx="74.57" cy="74.57" r="70.65"/><path class="cls-2" d="M37,74.6c0-9.35,0-18.7,0-28,0-1.33.38-1.68,1.69-1.75,5.67-.27,11.34-.37,17-.15,6.69.27,12.91,2.07,17.26,7.66C81.74,63.69,75.69,80.38,61.48,84a45,45,0,0,1-12.56,1c-1.13,0-1.42.27-1.41,1.4.06,5.5,0,11,.06,16.51,0,1.27-.23,1.79-1.64,1.73-2.45-.13-4.92-.11-7.37,0-1.29.05-1.62-.36-1.62-1.62C37,93.52,37,84.06,37,74.6Zm10.57-9.87c0,3.2,0,6.41,0,9.61,0,.76.11,1.13,1,1.16a36.41,36.41,0,0,0,9.09-.43c5.29-1.08,8.43-4.65,8.53-9.67.12-6.12-2.42-9.56-8.08-11a32.13,32.13,0,0,0-9.39-.39c-1,.06-1.17.5-1.16,1.38C47.56,58.54,47.54,61.63,47.54,64.73Z"/><path class="cls-2" d="M82.17,97V94c0-2,0-1.95,1.68-1.06A23.12,23.12,0,0,0,97,95.62a7.36,7.36,0,0,0,2.31-.6c2.74-1.22,3.27-4,1.15-6.09a15.08,15.08,0,0,0-4.33-2.7,72.45,72.45,0,0,1-7.44-3.69c-4.9-3-7.22-7.4-6.38-13.11s4.63-9.14,10-10.6a29.17,29.17,0,0,1,15.8.48,1.93,1.93,0,0,1,1.67,2.26c-.11,2,0,4.06,0,6.09,0,1.87-.07,1.88-1.74,1.17a21.61,21.61,0,0,0-12.48-1.75,3.74,3.74,0,0,0-3.35,4.34c.13,1.17,1,1.77,1.86,2.38a28.86,28.86,0,0,0,6.07,3.2,32.08,32.08,0,0,1,7.1,4A12.65,12.65,0,0,1,105.8,102c-4.61,2.68-9.65,2.84-14.76,2.39a24.51,24.51,0,0,1-7.44-1.73c-1-.43-1.56-1-1.45-2.15S82.17,98.19,82.17,97Z"/></g></g></g></svg>