<svg xmlns="http://www.w3.org/2000/svg" viewBox="0 0 74.58 74.58"><defs><style>.cls-1{fill:#331429;stroke:#cb6498;stroke-miterlimit:10;stroke-width:3.92px;}.cls-2{fill:#cb6498;}</style></defs><title>sass</title><g id="Calque_2" data-name="Calque 2"><g id="Calque_2-2" data-name="Calque 2"><g id="Compétences"><circle class="cls-1" cx="37.29" cy="37.29" r="35.33"/><path class="cls-2" d="M30.25,45.72c-1.65-1.37-3.38-2.41-5-3.61A25.43,25.43,0,0,1,21,38.43c-2.8-3.21-3-6-.78-9.62a24.66,24.66,0,0,1,8.45-7.89,40.54,40.54,0,0,1,11.41-5,18.92,18.92,0,0,1,10.6.07c5,1.65,6.76,5.76,4.48,10.55a15.35,15.35,0,0,1-10.28,8.36,18.56,18.56,0,0,1-8.08.59,6.32,6.32,0,0,1-3.67-1.94,2.93,2.93,0,0,1-.76-1.35.42.42,0,0,1,.13-.49.36.36,0,0,1,.49.1c2.08,2.11,4.66,2.1,7.29,1.64a16.64,16.64,0,0,0,10.94-6.31A7.11,7.11,0,0,0,52.87,23a3.18,3.18,0,0,0-1.73-3,9.34,9.34,0,0,0-4.42-1c-4.55-.1-8.67,1.37-12.62,3.43a30.49,30.49,0,0,0-8,5.54,10.79,10.79,0,0,0-2.35,3.36A5.94,5.94,0,0,0,24.91,38a25.91,25.91,0,0,0,3.87,3.38,30.67,30.67,0,0,1,3.43,2.91c.38.4.73.31,1.16.22a13.27,13.27,0,0,1,7.34.13,6.58,6.58,0,0,1,4.72,5.15,4,4,0,0,1-2.3,4.37c-.28.13-.66.31-.85,0s.21-.49.42-.65a3.14,3.14,0,0,0,.72-4.8,5.72,5.72,0,0,0-3.05-2.1,12.32,12.32,0,0,0-5.53-.46c-.78.11-1,.35-.77,1.17a9.87,9.87,0,0,1-5.89,11.79,8.23,8.23,0,0,1-5.14.4,3.54,3.54,0,0,1-2.37-3.18,6.46,6.46,0,0,1,1.75-5.15A27,27,0,0,1,29.72,46Zm1.6,3.55c0-.21-.1-.66-.13-1.12,0-.69-.32-.71-.87-.41a20.51,20.51,0,0,0-4.26,3,7.46,7.46,0,0,0-2.29,3.58c-.18.72-.36,1.48.26,2.07a2,2,0,0,0,2.09.17A7.67,7.67,0,0,0,31.85,49.27Z"/></g></g></g></svg>