<?xml version="1.0" encoding="utf-8"?>
<!-- Generator: Adobe Illustrator 22.1.0, SVG Export Plug-In . SVG Version: 6.00 Build 0)  -->
<svg version="1.1" id="Calque_1" xmlns="http://www.w3.org/2000/svg" xmlns:xlink="http://www.w3.org/1999/xlink" x="0px" y="0px"
	 viewBox="0 0 398.2 52.4" style="enable-background:new 0 0 398.2 52.4;" xml:space="preserve">
<style type="text/css">
	.st0{fill:#0488C6;}
	.st1{fill:#FF8900;}
	.st2{fill:#015781;}
	.st3{enable-background:new    ;}
	.st4{fill:#2098D1;}
</style>
<title>Fichier 12</title>
<g id="Calque_2_1_">
	<g id="Calque_2-2">
		<g id="Footer">
			<g>
				<g>
					<path class="st0" d="M96.4,18.5h-9v9.2h-5.5v-23h15.4v4.2h-9.9v5.3h9L96.4,18.5z"/>
					<path class="st0" d="M109.3,15.4l-1.8-0.1c-1.7,0-2.8,0.5-3.2,1.6v10.8H99V10.6h5l0.2,2.2c0.6-1.5,2.1-2.5,3.8-2.5
						c0.5,0,1,0.1,1.5,0.2L109.3,15.4z"/>
					<path class="st0" d="M119.2,28c-2.4,0.1-4.7-0.7-6.4-2.4c-1.6-1.6-2.5-3.8-2.4-6.1v-0.4c0-1.6,0.3-3.2,1-4.6
						c0.6-1.3,1.6-2.4,2.8-3.1c1.4-0.8,2.9-1.1,4.4-1.1c2.1-0.1,4.2,0.7,5.7,2.2c1.5,1.7,2.2,4,2.1,6.3v2.1h-10.6
						c0.1,0.9,0.6,1.7,1.3,2.3c0.7,0.6,1.6,0.9,2.5,0.8c1.5,0.1,3-0.6,4-1.8L126,25c-0.7,1-1.7,1.7-2.8,2.2
						C121.9,27.7,120.6,28,119.2,28z M118.6,3.4h5.6l-4.4,5h-4.3L118.6,3.4z M118.6,14.4c-1.6,0-2.5,1-2.8,3.1h5.4v-0.4
						c0.1-0.7-0.2-1.5-0.7-2C120.1,14.6,119.3,14.3,118.6,14.4L118.6,14.4z"/>
					<path class="st0" d="M127.9,19c-0.1-2.3,0.5-4.5,1.8-6.4c1.1-1.5,3-2.4,4.9-2.3c1.5,0,2.9,0.7,3.9,1.8V3.4h5.4v24.3H139
						l-0.3-1.8c-1,1.4-2.5,2.2-4.2,2.1c-1.9,0.1-3.7-0.8-4.8-2.3C128.4,23.7,127.8,21.4,127.9,19z M133.3,19.3c0,3,0.9,4.6,2.7,4.6
						c1.1,0.1,2.1-0.5,2.5-1.5v-6.5c-0.4-1-1.4-1.6-2.5-1.5c-1.6,0-2.5,1.3-2.7,4L133.3,19.3z"/>
					<path class="st0" d="M155.1,28c-2.4,0.1-4.7-0.7-6.4-2.4c-1.6-1.6-2.5-3.8-2.4-6.1v-0.4c0-1.6,0.3-3.2,1-4.6
						c0.6-1.3,1.6-2.4,2.8-3.1c1.4-0.8,2.9-1.1,4.4-1.1c2.1-0.1,4.2,0.7,5.7,2.2c1.5,1.7,2.2,4,2.1,6.3v2.1h-10.6
						c0.1,0.9,0.6,1.7,1.2,2.3c0.7,0.6,1.6,0.9,2.5,0.8c1.5,0.1,3-0.6,4-1.8l2.4,2.9c-0.7,1-1.7,1.7-2.8,2.2
						C157.8,27.7,156.5,28,155.1,28z M154.4,3.4h5.6l-4.4,5h-4.4L154.4,3.4z M154.5,14.4c-1.6,0-2.5,1-2.8,3.1h5.4v-0.4
						c0.1-0.7-0.2-1.5-0.6-2C155.9,14.6,155.2,14.3,154.5,14.4L154.5,14.4z"/>
					<path class="st0" d="M174.8,15.4l-1.8-0.1c-1.7,0-2.8,0.5-3.2,1.6v10.8h-5.3V10.6h5l0.2,2.2c0.6-1.5,2.1-2.5,3.8-2.5
						c0.5,0,1,0.1,1.5,0.2L174.8,15.4z"/>
					<path class="st0" d="M176.7,6.2c0-0.7,0.3-1.4,0.8-1.9c1.3-1,3-1,4.3,0c0.5,0.5,0.8,1.2,0.8,1.9c0,0.7-0.3,1.4-0.8,1.8
						c-1.3,1-3,1-4.3,0C177,7.5,176.7,6.9,176.7,6.2z M182.4,27.7H177V10.6h5.4L182.4,27.7z"/>
					<path class="st0" d="M192.9,23.9c0.6,0,1.3-0.2,1.7-0.6c0.4-0.5,0.6-1.1,0.6-1.7h5c0.1,1.8-0.7,3.5-2,4.6
						c-1.5,1.2-3.3,1.9-5.3,1.8c-2.2,0.1-4.4-0.7-5.9-2.3c-1.5-1.8-2.3-4.1-2.1-6.5V19c0-1.6,0.3-3.2,1-4.6c0.6-1.3,1.6-2.3,2.8-3
						c1.3-0.8,2.7-1.2,4.2-1.2c1.9-0.1,3.8,0.6,5.3,1.9c1.3,1.3,2.1,3.1,2,5h-5c0-0.7-0.2-1.4-0.6-2c-0.4-0.5-1.1-0.7-1.7-0.7
						c-1.4,0-2.2,0.9-2.4,2.6c-0.1,0.8-0.1,1.5-0.1,2.3c-0.1,1.2,0.1,2.4,0.6,3.6C191.4,23.6,192.1,23.9,192.9,23.9z"/>
					<path class="st0" d="M209.4,21.3l-1.5,1.5v4.9h-5.3V3.4h5.3v12.9l0.5-0.7l4-5h6.4l-6,7l6.4,10.1h-6.1L209.4,21.3z"/>
					<path class="st0" d="M237.5,21.4l4.6-16.8h6.2l-7.8,23h-6.1l-7.7-23h6.2L237.5,21.4z"/>
					<path class="st0" d="M258.6,27.7c-0.2-0.5-0.4-1-0.5-1.5c-1,1.2-2.6,1.9-4.1,1.8c-1.5,0-3-0.5-4.1-1.5
						c-1.1-0.9-1.7-2.3-1.7-3.7c-0.1-1.7,0.7-3.3,2.1-4.2c1.8-1.1,3.9-1.6,6-1.4h1.6v-0.9c0-1.6-0.7-2.4-2-2.4
						c-0.9-0.1-1.8,0.5-1.9,1.4c0,0.2,0,0.3,0,0.5h-5.3c0-1.6,0.8-3.1,2.1-4c1.6-1.1,3.5-1.6,5.4-1.6c1.9-0.1,3.7,0.5,5.2,1.6
						c1.3,1.1,2,2.7,2,4.4v7.6c-0.1,1.2,0.2,2.5,0.7,3.6v0.3L258.6,27.7z M255.3,24.2c0.6,0,1.2-0.1,1.7-0.4c0.4-0.2,0.7-0.6,0.9-1
						v-2.7h-1.5c-1.9,0-2.8,0.8-2.8,2.5c0,0.4,0.2,0.9,0.5,1.2C254.4,24.1,254.9,24.2,255.3,24.2z"/>
					<path class="st0" d="M271.1,10.6l0.2,2c1.2-1.5,3-2.4,4.9-2.3c1.5-0.1,3,0.5,4,1.6c1,1.4,1.5,3.1,1.4,4.8v11h-5.4V16.9
						c0.1-0.7-0.1-1.3-0.5-1.9c-0.5-0.5-1.2-0.7-1.9-0.6c-0.9-0.1-1.8,0.4-2.3,1.2v12.1h-5.3V10.6H271.1z"/>
					<path class="st0" d="M311.3,22.9c0-0.5-0.3-0.9-0.7-1.1c-0.9-0.4-1.8-0.7-2.7-0.9c-1.1-0.2-2.3-0.6-3.3-1.2
						c-0.8-0.4-1.5-1-2-1.8c-0.5-0.7-0.7-1.5-0.7-2.4c0-1.5,0.7-3,1.9-3.9c1.5-1.1,3.3-1.6,5.1-1.5c1.9-0.1,3.8,0.4,5.4,1.5
						c1.3,0.9,2.1,2.4,2.1,4h-5.4c0-1.4-0.7-2.1-2.2-2.1c-0.5,0-1,0.2-1.4,0.5c-0.4,0.3-0.6,0.7-0.5,1.2c0,0.5,0.3,0.9,0.7,1.1
						c0.7,0.4,1.4,0.6,2.2,0.7c0.9,0.2,1.8,0.4,2.7,0.7c2.6,0.9,3.9,2.5,3.9,4.8c0,1.5-0.8,3-2.1,3.8c-1.6,1-3.5,1.5-5.4,1.5
						c-1.4,0-2.7-0.2-3.9-0.8c-1.1-0.5-2-1.2-2.7-2.1c-0.6-0.8-1-1.8-1-2.9h5c0,0.7,0.3,1.3,0.8,1.7c0.6,0.4,1.3,0.6,2,0.5
						c0.6,0,1.2-0.1,1.6-0.4C311.1,23.8,311.3,23.3,311.3,22.9z"/>
					<path class="st0" d="M327.9,22.9c0-0.5-0.3-0.9-0.7-1.1c-0.9-0.4-1.8-0.7-2.7-0.9c-1.1-0.2-2.3-0.6-3.3-1.2
						c-0.8-0.4-1.5-1-2-1.8c-0.5-0.7-0.7-1.5-0.7-2.4c0-1.5,0.7-3,2-3.9c1.5-1.1,3.3-1.6,5.1-1.5c1.9-0.1,3.8,0.4,5.4,1.5
						c1.3,0.9,2.1,2.4,2.1,4h-5.4c0-1.4-0.7-2.1-2.2-2.1c-0.5,0-1,0.2-1.4,0.5c-0.4,0.3-0.6,0.7-0.6,1.2c0,0.5,0.3,0.9,0.7,1.2
						c0.7,0.4,1.4,0.6,2.2,0.7c0.9,0.2,1.8,0.4,2.7,0.7c2.6,0.9,3.9,2.5,3.9,4.8c0,1.5-0.7,3-2,3.9c-1.6,1-3.5,1.6-5.4,1.5
						c-1.3,0-2.7-0.2-3.9-0.8c-1.1-0.5-2-1.2-2.7-2.1c-0.6-0.8-1-1.8-1-2.9h5c0,0.7,0.3,1.3,0.8,1.7c0.6,0.4,1.3,0.6,2,0.5
						c0.6,0,1.2-0.1,1.6-0.4C327.7,23.8,327.9,23.3,327.9,22.9z"/>
					<path class="st0" d="M342.8,23.9c0.6,0,1.3-0.2,1.7-0.6c0.4-0.5,0.6-1.1,0.6-1.7h5c0,1.8-0.7,3.5-2,4.6
						c-3.3,2.6-8.1,2.4-11.1-0.5c-1.5-1.8-2.3-4.1-2.1-6.5V19c0-1.6,0.3-3.2,1-4.6c0.6-1.3,1.6-2.3,2.8-3c1.3-0.7,2.8-1.1,4.3-1.1
						c1.9-0.1,3.8,0.6,5.3,1.9c1.3,1.3,2.1,3.1,2,5h-5c0-0.7-0.2-1.4-0.6-2c-0.4-0.5-1.1-0.7-1.7-0.7c-1.4,0-2.2,0.9-2.4,2.6
						c-0.1,0.8-0.1,1.5-0.1,2.3c-0.1,1.2,0.1,2.5,0.6,3.6C341.3,23.6,342,24,342.8,23.9z"/>
					<path class="st0" d="M357.6,12.4c2-2.5,5.7-2.9,8.2-0.8c0.1,0.1,0.3,0.2,0.4,0.4c1.1,1.4,1.6,3.2,1.5,4.9v10.8h-5.4V17
						c0.1-0.7-0.1-1.4-0.5-2c-0.5-0.5-1.2-0.7-1.9-0.6c-0.9-0.1-1.8,0.3-2.3,1v12.3h-5.3V3.4h5.3V12.4z"/>
					<path class="st0" d="M370,19c0-1.6,0.3-3.1,1-4.6c0.6-1.3,1.6-2.4,2.9-3.1c1.3-0.7,2.8-1.1,4.4-1.1c2.3-0.1,4.5,0.7,6.1,2.4
						c1.5,1.8,2.3,4.1,2.2,6.5v0.2c0.1,2.3-0.7,4.6-2.2,6.4c-1.6,1.6-3.8,2.5-6,2.4c-2.2,0.1-4.3-0.7-5.9-2.2
						c-1.6-1.6-2.4-3.7-2.4-6V19z M375.3,19.3c-0.1,1.2,0.2,2.4,0.7,3.5c0.5,0.7,1.3,1.2,2.2,1.1c1.9,0,2.9-1.5,2.9-4.4V19
						c0-3.1-1-4.6-3-4.6c-1.8,0-2.8,1.3-2.9,4L375.3,19.3z"/>
					<path class="st0" d="M395.1,6.3v4.3h2.8v3.7h-2.8v7.8c0,0.5,0.1,0.9,0.4,1.3c0.4,0.3,0.9,0.4,1.4,0.4c0.4,0,0.9,0,1.3-0.1v3.8
						c-1,0.3-2,0.5-3,0.5c-1.5,0.1-2.9-0.3-4.1-1.3c-1-1.1-1.4-2.5-1.3-3.9v-8.5h-2.2v-3.7h2.2V6.3H395.1z"/>
					<g>
						<rect x="293.2" y="4.7" class="st1" width="5.5" height="4.7"/>
						<rect x="293.2" y="11.1" class="st0" width="5.5" height="16.6"/>
					</g>
				</g>
				<g>
					<path class="st0" d="M20.9,28h-9.7v18.6H0V0h27.8l2.4,8.6h-19v10.7h7.1L20.9,28z"/>
					<polygon class="st1" points="56.2,8.7 59,0 46.5,0 44.1,8.7 					"/>
					<polygon class="st2" points="42.8,13.3 37.2,33.9 31.5,13.3 19.9,13.3 31,46.6 43.3,46.6 54.6,13.3 					"/>
				</g>
				<g class="st3">
					<path class="st4" d="M90.3,44.3l2-9.6h2.2l-3,12.8h-2.1L87,38.1l-2.5,9.3h-2.1l-3-12.8h2.2l2,9.6l2.4-9.6h1.9L90.3,44.3z"/>
					<path class="st4" d="M99.8,47.7c-1.4,0-2.5-0.4-3.3-1.3c-0.8-0.9-1.3-2-1.3-3.4v-0.3c0-0.9,0.2-1.8,0.5-2.5
						c0.4-0.7,0.9-1.3,1.5-1.7s1.4-0.6,2.2-0.6c1.3,0,2.3,0.4,3,1.2s1.1,2,1.1,3.5v0.9h-6.2c0.1,0.8,0.3,1.4,0.8,1.9s1,0.7,1.7,0.7
						c1,0,1.8-0.4,2.4-1.2l1.2,1.1c-0.4,0.6-0.9,1-1.5,1.3S100.6,47.7,99.8,47.7z M99.6,39.5c-0.6,0-1.1,0.2-1.4,0.6s-0.6,1-0.7,1.7
						h4.1v-0.2c0-0.7-0.2-1.3-0.6-1.6C100.6,39.7,100.2,39.5,99.6,39.5z"/>
					<path class="st4" d="M113.7,42.8c0,1.5-0.3,2.7-1,3.5s-1.6,1.3-2.7,1.3c-1.1,0-2-0.4-2.6-1.2l-0.1,1h-1.9V34h2.1v4.9
						c0.6-0.7,1.4-1.1,2.5-1.1c1.2,0,2.1,0.4,2.7,1.3s1,2.1,1,3.6V42.8z M111.5,42.6c0-1-0.2-1.8-0.5-2.3s-0.9-0.8-1.6-0.8
						c-0.9,0-1.6,0.4-2,1.2v3.9c0.4,0.8,1,1.2,2,1.2c0.7,0,1.2-0.3,1.5-0.7s0.6-1.3,0.6-2.3V42.6z"/>
					<path class="st4" d="M120.1,47.5V34.7h3.8c1.1,0,2.1,0.3,3,0.8s1.6,1.2,2,2.1s0.7,2,0.7,3.2v0.6c0,1.2-0.2,2.3-0.7,3.2
						s-1.2,1.6-2.1,2.1s-1.9,0.7-3.1,0.7H120.1z M122.4,36.5v9.2h1.5c1.2,0,2.1-0.4,2.7-1.1c0.6-0.7,0.9-1.8,1-3.1v-0.7
						c0-1.4-0.3-2.4-0.9-3.2s-1.5-1.1-2.6-1.1H122.4z"/>
					<path class="st4" d="M135.9,47.7c-1.4,0-2.5-0.4-3.3-1.3c-0.8-0.9-1.3-2-1.3-3.4v-0.3c0-0.9,0.2-1.8,0.5-2.5
						c0.4-0.7,0.9-1.3,1.5-1.7s1.4-0.6,2.2-0.6c1.3,0,2.3,0.4,3,1.2s1.1,2,1.1,3.5v0.9h-6.2c0.1,0.8,0.3,1.4,0.8,1.9s1,0.7,1.7,0.7
						c1,0,1.8-0.4,2.4-1.2l1.2,1.1c-0.4,0.6-0.9,1-1.5,1.3S136.7,47.7,135.9,47.7z M135.6,39.5c-0.6,0-1.1,0.2-1.4,0.6
						s-0.6,1-0.7,1.7h4.1v-0.2c0-0.7-0.2-1.3-0.6-1.6C136.7,39.7,136.2,39.5,135.6,39.5z"/>
					<path class="st4" d="M144.6,44.8l2-6.8h2.2l-3.3,9.5h-1.9l-3.3-9.5h2.2L144.6,44.8z"/>
					<path class="st4" d="M154.2,47.7c-1.4,0-2.5-0.4-3.3-1.3c-0.8-0.9-1.3-2-1.3-3.4v-0.3c0-0.9,0.2-1.8,0.5-2.5
						c0.4-0.7,0.9-1.3,1.5-1.7s1.4-0.6,2.2-0.6c1.3,0,2.3,0.4,3,1.2s1.1,2,1.1,3.5v0.9h-6.2c0.1,0.8,0.3,1.4,0.8,1.9s1,0.7,1.7,0.7
						c1,0,1.8-0.4,2.4-1.2l1.2,1.1c-0.4,0.6-0.9,1-1.5,1.3S155,47.7,154.2,47.7z M154,39.5c-0.6,0-1.1,0.2-1.4,0.6s-0.6,1-0.7,1.7
						h4.1v-0.2c0-0.7-0.2-1.3-0.6-1.6C155,39.7,154.6,39.5,154,39.5z"/>
					<path class="st4" d="M162,47.5h-2.1V34h2.1V47.5z"/>
					<path class="st4" d="M163.9,42.6c0-0.9,0.2-1.8,0.6-2.5c0.4-0.7,0.9-1.3,1.6-1.7c0.7-0.4,1.4-0.6,2.3-0.6
						c1.3,0,2.3,0.4,3.1,1.2s1.2,1.9,1.3,3.3l0,0.5c0,0.9-0.2,1.8-0.5,2.5s-0.9,1.3-1.5,1.7s-1.4,0.6-2.3,0.6
						c-1.3,0-2.4-0.4-3.2-1.3c-0.8-0.9-1.2-2.1-1.2-3.6V42.6z M166,42.8c0,1,0.2,1.7,0.6,2.3c0.4,0.6,1,0.8,1.7,0.8s1.3-0.3,1.7-0.8
						s0.6-1.4,0.6-2.5c0-1-0.2-1.7-0.6-2.3s-1-0.8-1.7-0.8c-0.7,0-1.3,0.3-1.7,0.8C166.2,40.9,166,41.7,166,42.8z"/>
					<path class="st4" d="M182.9,42.8c0,1.5-0.3,2.6-1,3.5c-0.7,0.9-1.6,1.3-2.7,1.3c-1,0-1.9-0.3-2.5-1v4.5h-2.1V38h2l0.1,1
						c0.6-0.8,1.5-1.1,2.6-1.1c1.2,0,2.1,0.4,2.7,1.3c0.7,0.9,1,2.1,1,3.6V42.8z M180.7,42.6c0-0.9-0.2-1.7-0.6-2.3
						s-0.9-0.8-1.6-0.8c-0.9,0-1.5,0.4-1.9,1.1v4.2c0.4,0.7,1,1.1,1.9,1.1c0.7,0,1.2-0.3,1.6-0.8C180.5,44.6,180.7,43.8,180.7,42.6z
						"/>
					<path class="st4" d="M188.9,47.7c-1.4,0-2.5-0.4-3.3-1.3c-0.8-0.9-1.3-2-1.3-3.4v-0.3c0-0.9,0.2-1.8,0.5-2.5
						c0.4-0.7,0.9-1.3,1.5-1.7s1.4-0.6,2.2-0.6c1.3,0,2.3,0.4,3,1.2s1.1,2,1.1,3.5v0.9h-6.2c0.1,0.8,0.3,1.4,0.8,1.9s1,0.7,1.7,0.7
						c1,0,1.8-0.4,2.4-1.2l1.2,1.1c-0.4,0.6-0.9,1-1.5,1.3S189.6,47.7,188.9,47.7z M188.6,39.5c-0.6,0-1.1,0.2-1.4,0.6
						s-0.6,1-0.7,1.7h4.1v-0.2c0-0.7-0.2-1.3-0.6-1.6C189.7,39.7,189.2,39.5,188.6,39.5z"/>
					<path class="st4" d="M199.3,39.9c-0.3,0-0.6-0.1-0.9-0.1c-1,0-1.6,0.4-2,1.1v6.5h-2.1V38h2l0.1,1.1c0.5-0.8,1.2-1.2,2.1-1.2
						c0.3,0,0.6,0,0.8,0.1L199.3,39.9z"/>
					<path class="st4" d="M210.6,34.7h2.2v9c0,1.2-0.4,2.2-1.1,2.9c-0.8,0.7-1.8,1.1-3,1.1c-1.3,0-2.4-0.3-3.1-1s-1.1-1.6-1.1-2.8
						h2.2c0,0.7,0.2,1.2,0.5,1.5c0.3,0.3,0.8,0.5,1.5,0.5c0.6,0,1.1-0.2,1.4-0.6c0.4-0.4,0.5-0.9,0.5-1.6V34.7z"/>
					<path class="st4" d="M220.9,46.5c-0.6,0.7-1.5,1.1-2.7,1.1c-1,0-1.8-0.3-2.3-0.9c-0.5-0.6-0.8-1.5-0.8-2.6V38h2.1v6.1
						c0,1.2,0.5,1.8,1.5,1.8c1,0,1.7-0.4,2.1-1.1V38h2.1v9.5h-2L220.9,46.5z"/>
					<path class="st4" d="M227.1,38l0.1,1.1c0.7-0.8,1.6-1.3,2.8-1.3c2,0,3,1.1,3,3.4v6.3h-2.1v-6.2c0-0.6-0.1-1-0.4-1.3
						c-0.3-0.3-0.7-0.4-1.3-0.4c-0.9,0-1.5,0.4-1.9,1.2v6.8h-2.1V38H227.1z"/>
					<path class="st4" d="M235.1,35.5c0-0.3,0.1-0.6,0.3-0.8c0.2-0.2,0.5-0.3,0.9-0.3s0.7,0.1,0.9,0.3s0.3,0.5,0.3,0.8
						c0,0.3-0.1,0.6-0.3,0.8c-0.2,0.2-0.5,0.3-0.9,0.3s-0.7-0.1-0.9-0.3C235.3,36.1,235.1,35.8,235.1,35.5z M237.4,47.5h-2.1V38h2.1
						V47.5z"/>
					<path class="st4" d="M239.3,42.6c0-0.9,0.2-1.8,0.6-2.5c0.4-0.7,0.9-1.3,1.6-1.7c0.7-0.4,1.4-0.6,2.3-0.6
						c1.3,0,2.3,0.4,3.1,1.2c0.8,0.8,1.2,1.9,1.3,3.3l0,0.5c0,0.9-0.2,1.8-0.5,2.5c-0.4,0.7-0.9,1.3-1.5,1.7
						c-0.7,0.4-1.4,0.6-2.3,0.6c-1.3,0-2.4-0.4-3.2-1.3c-0.8-0.9-1.2-2.1-1.2-3.6V42.6z M241.5,42.8c0,1,0.2,1.7,0.6,2.3
						c0.4,0.6,1,0.8,1.7,0.8s1.3-0.3,1.7-0.8c0.4-0.6,0.6-1.4,0.6-2.5c0-1-0.2-1.7-0.6-2.3c-0.4-0.6-1-0.8-1.7-0.8
						c-0.7,0-1.3,0.3-1.7,0.8C241.7,40.9,241.5,41.7,241.5,42.8z"/>
					<path class="st4" d="M255,39.9c-0.3,0-0.6-0.1-0.9-0.1c-1,0-1.6,0.4-2,1.1v6.5H250V38h2l0.1,1.1c0.5-0.8,1.2-1.2,2.1-1.2
						c0.3,0,0.6,0,0.8,0.1L255,39.9z"/>
				</g>
			</g>
		</g>
	</g>
</g>
</svg>
