<svg xmlns="http://www.w3.org/2000/svg" xmlns:xlink="http://www.w3.org/1999/xlink" viewBox="0 0 519.68 410.26"><defs><style>.cls-1{opacity:0.18;}.cls-2{fill:#fff;}.cls-3{fill:url(#Dégradé_sans_nom_13);}</style><linearGradient id="Dégradé_sans_nom_13" x1="259.84" x2="259.84" y2="410.26" gradientUnits="userSpaceOnUse"><stop offset="0" stop-color="#fff"/><stop offset="1" stop-color="#a8a8a8"/></linearGradient></defs><title>Fichier 11</title><g id="Calque_2" data-name="Calque 2"><g id="Calque_2-2" data-name="Calque 2"><g id="Intro_v2" data-name="Intro v2"><g class="cls-1"><path class="cls-2" d="M184.18,246.83H98.9V410.26H0V0L245.14.18l21,76.18H98.9v94.39H161Z"/><polygon class="cls-2" points="494.59 76.78 519.68 0 409.23 0 388.32 76.78 494.59 76.78"/><polygon class="cls-2" points="376.96 116.7 327.51 298.68 277.9 116.7 175.43 116.7 273.41 410.26 381.61 410.26 480.77 116.7 376.96 116.7"/><path class="cls-3" d="M184.18,246.83H98.9V410.26H0V0L245.14.18l21,76.18H98.9v94.39H161Z"/><polygon class="cls-3" points="494.59 76.78 519.68 0 409.23 0 388.32 76.78 494.59 76.78"/><polygon class="cls-3" points="376.96 116.7 327.51 298.68 277.9 116.7 175.43 116.7 273.41 410.26 381.61 410.26 480.77 116.7 376.96 116.7"/></g></g></g></g></svg>