<svg xmlns="http://www.w3.org/2000/svg" viewBox="0 0 398.17 52.36">
  <defs>
    <style>
      .cls-1 {
        fill: #0488c6;
      }

      .cls-2 {
        fill: #ff8900;
      }

      .cls-3 {
        fill: #015781;
      }

      .cls-4 {
        font-size: 18px;
        fill: #2098d1;
        font-family: Roboto-Medium, Roboto;
      }

      .cls-5 {
        letter-spacing: -0.01em;
      }
    </style>
  </defs>
  <title>Fichier 12</title>
  <g id="Calque_2" data-name="Calque 2">
    <g id="Calque_2-2" data-name="Calque 2">
      <g id="Footer">
        <g>
          <g>
            <path class="cls-1" d="M96.41,18.51h-9v9.18H81.89v-23H97.31V8.94H87.45v5.3h9Z"/>
            <path class="cls-1" d="M109.32,15.4l-1.75-.13c-1.68,0-2.76.53-3.23,1.58V27.69H99V10.57h5l.18,2.2a4.14,4.14,0,0,1,3.75-2.52,5.09,5.09,0,0,1,1.49.19Z"/>
            <path class="cls-1" d="M119.23,28a8.8,8.8,0,0,1-6.38-2.35,8.15,8.15,0,0,1-2.44-6.12V19.1a10.52,10.52,0,0,1,1-4.64,7.08,7.08,0,0,1,2.84-3.11,8.59,8.59,0,0,1,4.43-1.1,7.42,7.42,0,0,1,5.7,2.24,8.82,8.82,0,0,1,2.09,6.25v2.07H115.84a3.86,3.86,0,0,0,1.25,2.26,3.74,3.74,0,0,0,2.51.83,4.8,4.8,0,0,0,4-1.78L126,25a6.87,6.87,0,0,1-2.82,2.2A9.65,9.65,0,0,1,119.23,28Zm-.66-24.64h5.63l-4.4,5h-4.35Zm.06,11c-1.56,0-2.49,1-2.79,3.1h5.39v-.41a2.66,2.66,0,0,0-.65-2A2.6,2.6,0,0,0,118.63,14.37Z"/>
            <path class="cls-1" d="M127.92,19a10.49,10.49,0,0,1,1.76-6.41,5.79,5.79,0,0,1,4.91-2.34,4.91,4.91,0,0,1,3.86,1.81V3.38h5.35V27.69H139l-.27-1.83A5.05,5.05,0,0,1,134.55,28a5.77,5.77,0,0,1-4.84-2.34A10.81,10.81,0,0,1,127.92,19Zm5.34.34c0,3,.88,4.56,2.66,4.56a2.63,2.63,0,0,0,2.53-1.49V15.89a2.55,2.55,0,0,0-2.5-1.52q-2.47,0-2.68,4Z"/>
            <path class="cls-1" d="M155.12,28a8.78,8.78,0,0,1-6.38-2.35,8.11,8.11,0,0,1-2.44-6.12V19.1a10.52,10.52,0,0,1,1-4.64,7.14,7.14,0,0,1,2.84-3.11,8.65,8.65,0,0,1,4.44-1.1,7.41,7.41,0,0,1,5.69,2.24,8.78,8.78,0,0,1,2.09,6.25v2.07h-10.6A3.86,3.86,0,0,0,153,23.07a3.72,3.72,0,0,0,2.5.83,4.81,4.81,0,0,0,4-1.78L161.87,25a6.81,6.81,0,0,1-2.82,2.2A9.6,9.6,0,0,1,155.12,28Zm-.67-24.64h5.64l-4.4,5h-4.36Zm.06,11c-1.56,0-2.49,1-2.78,3.1h5.38v-.41a2.66,2.66,0,0,0-.65-2A2.57,2.57,0,0,0,154.51,14.37Z"/>
            <path class="cls-1" d="M174.84,15.4l-1.76-.13c-1.68,0-2.75.53-3.23,1.58V27.69h-5.33V10.57h5l.17,2.2a4.14,4.14,0,0,1,3.76-2.52,5,5,0,0,1,1.48.19Z"/>
            <path class="cls-1" d="M176.72,6.15a2.39,2.39,0,0,1,.83-1.87,3.53,3.53,0,0,1,4.27,0,2.38,2.38,0,0,1,.82,1.87A2.38,2.38,0,0,1,181.82,8a3.49,3.49,0,0,1-4.27,0A2.39,2.39,0,0,1,176.72,6.15Zm5.67,21.54H177V10.57h5.35Z"/>
            <path class="cls-1" d="M192.92,23.9a2.41,2.41,0,0,0,1.74-.61,2.26,2.26,0,0,0,.6-1.71h5a5.93,5.93,0,0,1-2,4.63A7.51,7.51,0,0,1,193,28a7.62,7.62,0,0,1-5.89-2.34A9.26,9.26,0,0,1,185,19.18V19a10.46,10.46,0,0,1,1-4.59,7,7,0,0,1,2.76-3A8.25,8.25,0,0,1,193,10.25a7.45,7.45,0,0,1,5.31,1.85,6.58,6.58,0,0,1,2,5h-5a2.92,2.92,0,0,0-.65-2,2.21,2.21,0,0,0-1.74-.71c-1.38,0-2.19.88-2.42,2.64a17.54,17.54,0,0,0-.11,2.31A7.39,7.39,0,0,0,191,22.9,2.16,2.16,0,0,0,192.92,23.9Z"/>
            <path class="cls-1" d="M209.39,21.32l-1.5,1.5v4.87h-5.33V3.37h5.33V16.28l.54-.71,4-5h6.39l-6,7,6.4,10.08h-6.11Z"/>
            <path class="cls-1" d="M237.51,21.43,242.1,4.65h6.2l-7.76,23h-6.07l-7.7-23h6.16Z"/>
            <path class="cls-1" d="M258.65,27.69a5.67,5.67,0,0,1-.5-1.53A5,5,0,0,1,254,28a6.08,6.08,0,0,1-4.11-1.46,4.68,4.68,0,0,1-1.7-3.68,4.79,4.79,0,0,1,2.06-4.21,10.48,10.48,0,0,1,6-1.43h1.65v-.91q0-2.37-2-2.37a1.67,1.67,0,0,0-1.9,1.88h-5.34a4.79,4.79,0,0,1,2.12-4,8.89,8.89,0,0,1,5.39-1.55,7.74,7.74,0,0,1,5.17,1.6,5.55,5.55,0,0,1,1.95,4.38v7.59a7.71,7.71,0,0,0,.73,3.61v.26Zm-3.34-3.48a3,3,0,0,0,1.66-.43,2.6,2.6,0,0,0,.94-1V20.08h-1.55c-1.86,0-2.79.83-2.79,2.5a1.54,1.54,0,0,0,.49,1.18A1.79,1.79,0,0,0,255.31,24.21Z"/>
            <path class="cls-1" d="M271.11,10.57l.17,2a5.84,5.84,0,0,1,4.9-2.33,4.86,4.86,0,0,1,4,1.6,7.61,7.61,0,0,1,1.37,4.81v11h-5.35V16.88a2.86,2.86,0,0,0-.52-1.9,2.4,2.4,0,0,0-1.9-.61,2.56,2.56,0,0,0-2.33,1.23V27.69h-5.33V10.57Z"/>
            <path class="cls-1" d="M311.32,22.88a1.23,1.23,0,0,0-.72-1.09,10.68,10.68,0,0,0-2.7-.85,12.62,12.62,0,0,1-3.3-1.17,5.46,5.46,0,0,1-2-1.75,4.11,4.11,0,0,1-.68-2.36,4.72,4.72,0,0,1,1.94-3.88,8,8,0,0,1,5.1-1.53,8.82,8.82,0,0,1,5.44,1.54,4.78,4.78,0,0,1,2.06,4h-5.35c0-1.37-.72-2.06-2.17-2.06a2.16,2.16,0,0,0-1.41.47A1.45,1.45,0,0,0,307,15.4a1.33,1.33,0,0,0,.7,1.15,6.55,6.55,0,0,0,2.23.73,20,20,0,0,1,2.68.68c2.57.89,3.86,2.47,3.86,4.76a4.48,4.48,0,0,1-2.08,3.82A9.16,9.16,0,0,1,309,28a9.29,9.29,0,0,1-3.93-.79,6.68,6.68,0,0,1-2.69-2.15,4.92,4.92,0,0,1-1-2.87h5a2.07,2.07,0,0,0,.79,1.73,3.24,3.24,0,0,0,1.95.55,2.59,2.59,0,0,0,1.64-.44A1.44,1.44,0,0,0,311.32,22.88Z"/>
            <path class="cls-1" d="M327.92,22.88a1.23,1.23,0,0,0-.71-1.09,10.94,10.94,0,0,0-2.71-.85,12.4,12.4,0,0,1-3.29-1.17,5.41,5.41,0,0,1-2-1.75,4.19,4.19,0,0,1-.68-2.36,4.73,4.73,0,0,1,1.95-3.88,8,8,0,0,1,5.09-1.53A8.85,8.85,0,0,1,331,11.79a4.8,4.8,0,0,1,2.06,4h-5.35c0-1.37-.73-2.06-2.17-2.06a2.16,2.16,0,0,0-1.41.47,1.45,1.45,0,0,0-.57,1.17,1.31,1.31,0,0,0,.7,1.15,6.4,6.4,0,0,0,2.22.73,19.65,19.65,0,0,1,2.68.68c2.58.89,3.86,2.47,3.86,4.76A4.48,4.48,0,0,1,331,26.54,9.11,9.11,0,0,1,325.59,28a9.27,9.27,0,0,1-3.92-.79A6.61,6.61,0,0,1,319,25.07a4.86,4.86,0,0,1-1-2.87h5a2,2,0,0,0,.79,1.73,3.22,3.22,0,0,0,1.95.55,2.58,2.58,0,0,0,1.63-.44A1.41,1.41,0,0,0,327.92,22.88Z"/>
            <path class="cls-1" d="M342.8,23.9a2.39,2.39,0,0,0,1.74-.61,2.26,2.26,0,0,0,.6-1.71h5a6,6,0,0,1-2,4.63A8.5,8.5,0,0,1,337,25.67a9.21,9.21,0,0,1-2.15-6.49V19a10.46,10.46,0,0,1,.95-4.59,7,7,0,0,1,2.77-3,8.23,8.23,0,0,1,4.27-1.07,7.42,7.42,0,0,1,5.3,1.85,6.58,6.58,0,0,1,2,5h-5a2.87,2.87,0,0,0-.65-2,2.21,2.21,0,0,0-1.74-.71c-1.38,0-2.19.88-2.42,2.64a19.49,19.49,0,0,0-.11,2.31,7.36,7.36,0,0,0,.62,3.58A2.14,2.14,0,0,0,342.8,23.9Z"/>
            <path class="cls-1" d="M357.62,12.4a5.85,5.85,0,0,1,8.64-.47,7.53,7.53,0,0,1,1.47,4.95V27.69h-5.35V17a3,3,0,0,0-.55-2,2.38,2.38,0,0,0-1.89-.64,2.55,2.55,0,0,0-2.32,1V27.69h-5.34V3.38h5.34Z"/>
            <path class="cls-1" d="M370,19a10.13,10.13,0,0,1,1-4.56,7.08,7.08,0,0,1,2.87-3.08,8.57,8.57,0,0,1,4.38-1.08,7.88,7.88,0,0,1,6.07,2.38,9.18,9.18,0,0,1,2.21,6.48v.19a8.9,8.9,0,0,1-2.22,6.36,7.9,7.9,0,0,1-6,2.35,8,8,0,0,1-5.87-2.19A8.58,8.58,0,0,1,370,19.87Zm5.33.33a6.45,6.45,0,0,0,.74,3.49,2.48,2.48,0,0,0,2.2,1.11c1.9,0,2.87-1.47,2.92-4.39V19q0-4.6-3-4.6c-1.78,0-2.75,1.32-2.89,4Z"/>
            <path class="cls-1" d="M395.11,6.31v4.26h2.82v3.7h-2.82v7.84a2,2,0,0,0,.35,1.34,1.84,1.84,0,0,0,1.38.38,8.24,8.24,0,0,0,1.33-.09v3.81a9.72,9.72,0,0,1-3,.46,5.59,5.59,0,0,1-4.07-1.3,5.34,5.34,0,0,1-1.31-3.94v-8.5H387.6v-3.7h2.18V6.31Z"/>
            <g>
              <rect class="cls-2" x="293.19" y="4.65" width="5.54" height="4.68"/>
              <rect class="cls-1" x="293.19" y="11.07" width="5.54" height="16.63"/>
            </g>
          </g>
          <g>
            <path class="cls-1" d="M20.91,28H11.23V46.58H0V0L27.83,0l2.39,8.65h-19V19.39h7.05Z"/>
            <polygon class="cls-2" points="56.15 8.72 59 0 46.46 0 44.09 8.72 56.15 8.72"/>
            <polygon class="cls-3" points="42.8 13.25 37.18 33.91 31.55 13.25 19.92 13.25 31.04 46.58 43.33 46.58 54.58 13.25 42.8 13.25"/>
          </g>
          <text class="cls-4" transform="translate(79 47.48)">D<tspan class="cls-5" x="11.76" y="0">év</tspan><tspan x="30.09" y="0">eloppeur web junior</tspan></text>
        </g>
      </g>
    </g>
  </g>
</svg>
