<svg xmlns="http://www.w3.org/2000/svg" viewBox="0 0 149.14 149.14"><defs><style>.cls-1{fill:#0d1322;stroke:#3554a1;stroke-miterlimit:10;stroke-width:7.84px;}.cls-2{fill:#3554a1;}.cls-3{fill:#3b60a9;}.cls-4{fill:#eaeaea;}.cls-5{fill:#fff;}</style></defs><title>css</title><g id="Calque_2" data-name="Calque 2"><g id="Calque_2-2" data-name="Calque 2"><g id="Compétences"><circle class="cls-1" cx="74.57" cy="74.57" r="70.65"/><g id="layer1"><g id="g3013"><polygon id="polygon2989" class="cls-2" points="103.62 49.68 98.33 108.98 74.53 115.58 50.81 108.99 45.52 49.68 103.62 49.68"/><polygon id="polygon2991" class="cls-3" points="93.8 105.2 98.32 54.53 74.57 54.53 74.57 110.53 93.8 105.2"/><polygon id="polygon2993" class="cls-4" points="57.64 76.53 58.29 83.8 74.57 83.8 74.57 76.53 57.64 76.53"/><polygon id="polygon2995" class="cls-4" points="74.57 61.8 74.55 61.8 56.33 61.8 56.99 69.08 74.57 69.08 74.57 61.8"/><polygon id="polygon2997" class="cls-4" points="74.57 102.99 74.57 95.42 74.54 95.43 66.44 93.24 65.92 87.44 61.98 87.44 58.62 87.44 59.64 98.86 74.54 103 74.57 102.99"/><path id="path2999" class="cls-5" d="M59.19,33.57H68v3.68H62.88v3.68H68v3.69H59.19Z"/><path id="path3001" class="cls-5" d="M69.77,33.57h8.81v3.2H73.45v.64h5.13v7.37H69.77V41.41h5.12v-.64H69.77Z"/><path id="path3003" class="cls-5" d="M80.34,33.57h8.81v3.2H84v.64h5.13v7.37H80.34V41.41h5.12v-.64H80.34Z"/><polygon id="polygon3005" class="cls-5" points="83.5 83.8 82.66 93.23 74.55 95.42 74.55 102.99 89.46 98.86 89.57 97.63 91.28 78.48 91.45 76.53 92.77 61.8 74.55 61.8 74.55 69.08 84.8 69.08 84.13 76.53 74.55 76.53 74.55 83.8 83.5 83.8"/></g></g></g></g></g></svg>