<svg xmlns="http://www.w3.org/2000/svg" viewBox="0 0 149.14 149.14"><defs><style>.cls-1{fill:#210811;stroke:#e34d27;stroke-miterlimit:10;stroke-width:7.84px;}.cls-2{fill:#fff;}.cls-3{fill:#e34d27;}.cls-4{fill:#eb652b;}.cls-5{fill:#eaeaea;}</style></defs><title>html</title><g id="Calque_2" data-name="Calque 2"><g id="Calque_2-2" data-name="Calque 2"><g id="Compétences"><circle class="cls-1" cx="74.57" cy="74.57" r="70.65"/><path class="cls-2" d="M50.81,33.35h3.7V37h3.41V33.35h3.71V44.46H57.92v-3.7H54.54v3.7H50.81m15.71-7.4H63.25V33.35H73.51v3.71H70.22v7.4h-3.7m8.61-11.11H79l2.39,3.92,2.38-3.92h3.88V44.46H84V39l-2.59,4-2.6-4v5.5H75.13M89.5,33.35h3.7v7.44h5.25v3.67h-9"/><path class="cls-3" d="M50.68,109.19,45.36,49.55h58.42l-5.32,59.6-23.94,6.64"/><path class="cls-4" d="M74.57,110.72V54.45H98.45l-4.56,50.87"/><path class="cls-5" d="M56.22,61.74H74.57v7.31H64.23l.68,7.48h9.66v7.3H58.21m.32,3.67h7.35l.51,5.84,8.18,2.19v7.63L59.57,99"/><path class="cls-2" d="M92.86,61.74H74.54v7.31H92.18m-.66,7.48h-17v7.31h9l-.85,9.5-8.16,2.19v7.6l15-4.15"/></g></g></g></svg>