<?xml version="1.0" encoding="utf-8"?>
<!-- Generator: Adobe Illustrator 22.1.0, SVG Export Plug-In . SVG Version: 6.00 Build 0)  -->
<svg version="1.1" id="Calque_1" xmlns="http://www.w3.org/2000/svg" xmlns:xlink="http://www.w3.org/1999/xlink" x="0px" y="0px"
	 viewBox="0 0 649.5 649.5" style="enable-background:new 0 0 649.5 649.5;" xml:space="preserve">
<style type="text/css">
	.st0{fill:#342851;stroke:#E22A74;stroke-width:33.9667;stroke-miterlimit:10;}
	.st1{fill:#A5DBE8;}
	.st2{fill:#525353;}
	.st3{fill:#AA9678;}
	.st4{fill:#C4B6A1;}
	.st5{fill:#786453;}
	.st6{fill:#FFFFFF;}
	.st7{fill:#BBBCBD;}
	.st8{fill:#676A6A;}
	.st9{fill:#909393;}
	.st10{fill:#E3DDDB;}
	.st11{fill:#FCB03F;}
	.st12{fill:#9F2254;}
	.st13{fill:#DF0067;}
	.st14{fill:#8B7460;}
</style>
<g>
	<circle class="st0" cx="324.8" cy="324.8" r="305.7"/>
	<g>
		<path class="st1" d="M255.7,429.9c3.1-1.4,6.3-2.7,9.5-3.9c3.6-1.4,7.3-2.7,10.9-3.7c4.6-1.4,9.2-2.7,13.9-3.7
			c6.3-1.4,12.8-2.3,19.2-3c-3.7,11.5-7.7,22.8-12,34.1c0.2,2.2,0.3,4.4,0.3,6.6c8.9-1.8,18-2.7,27.1-2.7c9.2,0,18.3,1,27.1,2.7
			c0.1-2.2,0.1-4.4,0.3-6.6c-4.4-11.2-8.4-22.6-12-34.1c6.5,0.6,12.9,1.6,19.2,3c4.7,1,9.4,2.2,13.9,3.7c3.7,1.1,7.3,2.4,10.9,3.7
			c3.2,1.2,6.4,2.5,9.5,3.9c22.7,10.1,42.9,25,59.2,43.7c41.8-36,68.2-89.3,68.2-148.8c0-108.5-88-196.5-196.5-196.5
			s-196.5,88-196.5,196.5c0,59.4,26.5,112.8,68.2,148.8C212.8,454.8,233,439.9,255.7,429.9"/>
		<path class="st2" d="M394,429.9l12.2,42l3.5,0.1c2.2,0,3.8,0.6,3.8,2.9c0,3.7,0.2,8,0.5,11.6c3.1,2.6,6.7,5.5,9.5,8.3
			c10.5-6.1,20.4-13.2,29.7-21.1C436.8,454.8,416.6,439.9,394,429.9 M370.1,429.5l14.3-3.5c-3.6-1.4-7.3-2.7-10.9-3.7
			c-4.6-1.4-9.2-2.7-13.9-3.7c-6.3-1.4-12.8-2.3-19.2-3c3.7,11.5,7.7,22.8,12,34.1c-0.2,2.2-0.3,4.4-0.3,6.6
			c10.1,2,20.1,5.5,29.4,9.6L370.1,429.5"/>
		<path d="M226.1,494.7c2.3,1.4,4.6,2.7,6.9,3.9c0.8-3.9,2.1-9.4,2.5-13.5C232.5,487.7,228.9,491.9,226.1,494.7 M381,465.4
			c-9.3-4.1-19.1-7.2-29.1-9.2c-8.9-1.8-18-2.7-27.1-2.7c-9.2,0-18.3,1-27.1,2.7c-10.1,2-20.7,5-30,9.1l-1,6.1h116L381,465.4"/>
		<path class="st2" d="M235.2,486.3c0.3-3.7,0.6-6.9,0.6-10.7c0-2.2,1.6-3.7,3.8-3.7l3.7-0.1l12.4-42c-22.7,10.1-42.9,25-59.2,43.7
			c9.2,8,19.1,15,29.7,21.1c2.8-2.9,5.7-5.5,8.8-8.1"/>
		<path d="M415.5,493.8c0.8,4,1,4.8,1.1,4.8c2.3-1.2,4.6-2.5,6.9-3.9c-2.9-2.9-5.8-5.6-8.8-8.2L415.5,493.8"/>
		<path class="st3" d="M381,465.4l1.8,6.1h23.7L394,429.9c-3.1-1.4-6.3-2.7-9.5-3.9l-14.3,3.5L381,465.4"/>
		<path class="st4" d="M243.5,479.9c0.1-0.1,0.3-0.2,0.3-0.3h-0.3C243.5,479.6,243.5,479.7,243.5,479.9"/>
		<path class="st3" d="M406.1,479.6h-0.3l0.3,0.3C406.1,479.7,406.1,479.6,406.1,479.6"/>
		<path class="st3" d="M405.7,479l-81.1,0.1l0.1,42.3c30.2,0,58.8-6.8,84.3-19c-1.7-7.3-1.8-15.2-2.1-22.9
			C406.9,479.4,405.7,479,405.7,479"/>
		<path class="st4" d="M324.7,479.2c0,0-81.5-0.1-81.6,0c-0.3,7.7-1.8,16.8-2.5,23.1c25.6,12.2,54.1,19,84.3,19l0.1-42L324.7,479.2"
			/>
		<path class="st5" d="M324.8,475.5L324.8,475.5v4.1l0,0V475.5z"/>
		<path class="st2" d="M381,443.4"/>
		<path class="st3" d="M385.6,447.9l0.1,0.1L385.6,447.9c0,0-2-1.6-4.5-4.5C383.6,446.3,385.6,447.9,385.6,447.9"/>
		<path class="st6" d="M445.6,270.1L445.6,270.1L445.6,270.1 M453.5,326.6L453.5,326.6L453.5,326.6"/>
		<path class="st7" d="M453.5,326.6L453.5,326.6L453.5,326.6"/>
		<path class="st8" d="M453.3,323.5c0,0.1,0,0.1,0,0.1v0.1l0,0c0.1,0.7,0.1,1.6,0.1,2.3c0,0.1,0,0.3,0,0.4v0.1v0.1
			c0,0.1,0,0.3,0,0.5c0,0.7-0.1,1.5-0.1,2.3l0,0v0.1c0,0.1,0,0.1,0,0.2c-0.1,0.8-0.3,1.6-0.4,2.3l0,0l0,0l0,0v-0.1l0,0l5.2-5.4
			l-5.2-5.4l0,0C453.1,321.9,453.2,322.7,453.3,323.5"/>
		<path d="M453.3,329.7c0-0.1,0.1-0.2,0.1-0.3c0.1-0.7,0.1-1.5,0.1-2.3c0-0.2,0-0.3,0-0.5c0-0.1,0-0.3,0-0.5c0-0.7-0.1-1.6-0.1-2.3
			c0-0.1-0.1-0.1-0.1-0.3c-0.1-0.8-0.3-1.6-0.5-2.4c-0.1-0.3-0.1-0.5-0.3-0.7c-0.5-1.6-1.1-2.9-1.8-4c-0.3-0.4-0.6-0.8-1-1.2
			c-0.3-0.3-0.7-0.7-1-1c-0.1-0.1-0.3-0.2-0.4-0.3c-0.4-0.3-0.9-0.5-1.4-0.7c-0.5-0.1-1-0.2-1.4-0.3c-0.5,0-1,0.1-1.4,0.3
			c-0.5,0.1-1,0.4-1.4,0.7c-0.1,0.1-0.3,0.1-0.4,0.3c-0.6,0.5-1.2,1.1-1.6,1.7c-0.1,0.1-0.2,0.3-0.3,0.5c-0.7,1.2-1.4,2.5-1.8,4
			l-0.1,0.2c-0.2,0.7-0.3,1.4-0.5,2.2c-0.1,0.2-0.1,0.5-0.1,0.7c-0.1,0.9-0.2,1.8-0.2,2.7c0,0.1,0,0.3,0,0.3l0,0
			c0,7.5,3.5,13.5,7.9,13.5c0.7,0,1.5-0.2,2.2-0.5c0.4-0.2,0.8-0.5,1.2-0.7c0.1-0.1,0.3-0.3,0.4-0.4c0.3-0.3,0.7-0.7,1-1.1
			c0.2-0.3,0.4-0.5,0.6-0.9c0.1-0.2,0.3-0.4,0.3-0.6c0.2-0.4,0.4-0.8,0.6-1.3c0.1-0.1,0.1-0.3,0.2-0.5c0.3-0.6,0.5-1.3,0.6-2
			C453.1,331.3,453.2,330.5,453.3,329.7L453.3,329.7z M445.9,324.8c-1.6,0-3-2.2-3-5.1c0-2.8,1.4-5.1,3-5.1s3,2.2,3,5.1
			C448.9,322.5,447.5,324.8,445.9,324.8z"/>
		<path class="st6" d="M445.9,314.6c-1.6,0-3,2.2-3,5.1c0,2.8,1.4,5.1,3,5.1s3-2.2,3-5.1C448.9,316.9,447.5,314.6,445.9,314.6"/>
		<path class="st9" d="M438.6,320.4c0.5-1.6,1.1-2.9,1.8-4c0.1-0.1,0.2-0.3,0.3-0.5c0.5-0.7,1-1.2,1.6-1.7c0.1-0.1,0.3-0.2,0.4-0.3
			c0.4-0.3,0.9-0.5,1.4-0.7c0.5-0.1,1-0.3,1.4-0.3s1,0.1,1.4,0.3c0.5,0.1,1,0.4,1.4,0.7c0.1,0.1,0.3,0.1,0.4,0.3
			c0.3,0.3,0.7,0.6,1,1c0.3,0.4,0.7,0.8,1,1.2c0.7,1.2,1.4,2.5,1.8,4l0,0l-7-32L438.6,320.4L438.6,320.4"/>
		<path d="M352.9,326.3c0-0.6-0.1-1.3-0.1-1.9l0,0c-0.1-0.6-0.2-1.2-0.3-1.8v-0.1c-0.1-0.6-0.3-1.2-0.5-1.8v-0.1
			c-0.2-0.5-0.4-1.2-0.7-1.7l0,0c-2-4.4-5.5-7.8-9.9-9.6h-0.1c-1.1-0.4-2.2-0.7-3.3-1h-0.1c-1.2-0.2-2.4-0.3-3.5-0.3
			c-1.2,0-2.4,0.1-3.5,0.3h-0.1c-1.2,0.2-2.2,0.5-3.3,1h-0.1c-1.1,0.4-2,1-3,1.6s-1.8,1.3-2.7,2.1v0.1h-0.1
			c-1.3,1.3-2.4,2.7-3.3,4.3v0.1c-0.3,0.5-0.5,1-0.7,1.5c0,0.1-0.1,0.1-0.1,0.1c-0.2,0.5-0.4,1-0.5,1.5c0,0.1-0.1,0.2-0.1,0.3
			c-0.1,0.5-0.3,1-0.4,1.4c0,0.1-0.1,0.3-0.1,0.4c-0.1,0.5-0.1,1-0.2,1.4c0,0.1-0.1,0.3-0.1,0.4c-0.2,1.8-0.1,3.7,0.3,5.5v0.1
			c0.2,1.2,0.5,2.2,1,3.3c0,0,0,0,0,0.1c0.9,2.2,2.2,4.1,3.7,5.8c1.3,1.3,2.7,2.4,4.3,3.3l0,0c0.5,0.3,1,0.5,1.6,0.7
			c0.1,0,0.1,0.1,0.1,0.1c0.5,0.2,1,0.4,1.5,0.5c0.1,0,0.1,0.1,0.3,0.1c0.5,0.1,1,0.3,1.4,0.4c0.1,0,0.3,0.1,0.4,0.1
			c0.5,0.1,1,0.1,1.4,0.2c0.1,0,0.3,0.1,0.4,0.1c4.4,0.5,8.6-0.6,12.2-3.1c2-1.4,3.7-3.1,5-5c2-3.1,3.2-6.7,3.2-10.3
			c0-0.1,0-0.1,0-0.1C352.9,326.4,352.9,326.4,352.9,326.3L352.9,326.3z M334.4,324.1c-3.8,0-6.9-3.1-6.9-6.9s3.1-6.9,6.9-6.9
			s6.9,3.1,6.9,6.9C341.3,321,338.3,324.1,334.4,324.1z"/>
		<path class="st6" d="M334.4,310.2c-3.8,0-6.9,3.1-6.9,6.9s3.1,6.9,6.9,6.9l0,0c3.8,0,6.9-3.1,6.9-6.9S338.3,310.2,334.4,310.2"/>
		<path class="st7" d="M321.7,313.1L321.7,313.1L321.7,313.1l12.9-39.1v-9.1v-0.1c-7.2-1.5-14.6-2.2-21.9-2.2c-2.5,0-5,0.1-7.4,0.3
			c-0.3,0-0.7,0.1-1.1,0.1c-12.8,1-25.4,4.3-37.1,9.7c-10,4.6-19.3,10.6-27.7,17.7l0,0l0,0c-2.2,1.9-4.4,3.9-6.5,6
			c-0.4,0.4-0.8,0.7-1.2,1.2c-2,2-3.9,4.1-5.7,6.2c-0.4,0.5-0.8,1-1.2,1.4c-1.8,2.2-3.7,4.4-5.4,6.7c-0.1,0.2-0.3,0.4-0.4,0.6
			c-1.6,2.2-3.2,4.5-4.7,6.8c-0.3,0.5-0.6,0.9-0.9,1.4c-1.2,1.9-2.3,3.9-3.5,5.8H268L321.7,313.1"/>
		<path class="st10" d="M370.7,308.8c0.1-1.5,0.2-3.1,0.3-4.6c0.1-2,0.2-4.1,0.2-6.2c0-1.6,0-3.2,0-4.8c0-0.5,0-1,0-1.4
			c-0.1-4.1-0.2-8.3-0.5-12.4h-0.1l0,0c-1.6-0.9-3.1-1.8-4.6-2.7l-0.1-0.1l-1.2-0.7l0,0l-0.8-0.5l-0.1-0.1c-0.2-0.1-0.4-0.2-0.6-0.3
			c-2.7-1.4-5.4-2.7-8.2-3.8c-6.6-2.8-15.5-5.2-20.5-6.4v9.2l12.6,39l0,0c1.3,1.2,2.4,2.7,3.3,4.2l0,0c0.3,0.5,0.5,1,0.8,1.6l0,0
			c0.3,0.5,0.5,1.1,0.7,1.7v0.1c0.2,0.5,0.3,1.2,0.5,1.8v0.1c0.1,0.6,0.2,1.2,0.3,1.8l0,0c0.1,0.6,0.1,1.3,0.1,1.9l0.1,0.1h15.5
			c1-5.7,1.8-11.4,2.2-17.1C370.7,309.1,370.7,308.9,370.7,308.8"/>
		<path class="st11" d="M391,294.9C390.9,294.9,390.9,294.9,391,294.9L391,294.9"/>
		<path class="st9" d="M321.7,313c0.8-0.7,1.7-1.5,2.7-2.1c1-0.6,2-1.2,3-1.6h0.1c1-0.4,2.1-0.7,3.3-1h0.1c1.2-0.2,2.3-0.3,3.5-0.3
			c1.2,0,2.4,0.1,3.5,0.3h0.1c1.2,0.2,2.3,0.5,3.4,1c2.1,0.9,4.1,2.2,5.8,3.7l0,0l-12.6-39L321.7,313"/>
		<path class="st8" d="M317.3,333.6c-0.5-1.1-0.7-2.2-1-3.3v-0.1c-0.3-1.8-0.5-3.7-0.3-5.5c0-0.1,0.1-0.3,0.1-0.4
			c0.1-0.5,0.1-1,0.2-1.4c0-0.1,0.1-0.3,0.1-0.4c0.1-0.5,0.2-1,0.4-1.4c0-0.1,0.1-0.2,0.1-0.3c0.1-0.5,0.3-1,0.5-1.5
			c0-0.1,0.1-0.1,0.1-0.1c0.2-0.5,0.5-1,0.7-1.5v-0.1c0.9-1.6,2-3.1,3.3-4.3l-53.7,13.3h-0.1l53.1,13
			C319.4,337.7,318.1,335.7,317.3,333.6L317.3,333.6"/>
		<path class="st10" d="M438,323.5c0-0.3,0.1-0.5,0.1-0.7c0.1-0.7,0.3-1.5,0.5-2.2c0-0.1,0-0.2,0.1-0.3l7-32V270
			c-5.7-4.7-11.8-7.3-18.2-7.3c-8,0-15.6,4.4-21.2,9.9c-6.1,6-10.9,13.6-14.8,21.2c-0.2,0.3-0.3,0.7-0.5,1c1.2,1,2.4,2,3.5,3.1
			c2.6,2.4,5.2,4.8,7.7,7.3c1.2,1.2,2.3,2.3,3.5,3.5c1.2,1.2,2.4,2.5,3.7,3.7c2.2,2.3,4.4,4.7,6.5,7.1c1.8,2,3.7,4.1,5.4,6.2l0,0
			c0.3,0.3,0.5,0.5,0.6,0.6h15.8c0-0.1,0-0.3,0-0.3C437.8,325.2,437.8,324.3,438,323.5 M391,295L391,295L391,295L391,295
			C391,295,391,295,391,295"/>
		<path class="st2" d="M200.4,346.6l0.1-0.3c2.1-5.5,4.6-10.9,7.3-16c0.4-0.8,0.8-1.6,1.3-2.4c0.3-0.5,0.5-0.9,0.7-1.3
			c1.1-2,2.2-3.9,3.5-5.8c0.3-0.5,0.6-0.9,0.9-1.4c1.5-2.3,3.1-4.6,4.7-6.8c0.1-0.2,0.3-0.4,0.4-0.6c1.7-2.3,3.5-4.6,5.4-6.7
			c0.4-0.5,0.8-1,1.2-1.4c1.8-2.1,3.7-4.1,5.7-6.2c0.4-0.4,0.8-0.7,1.2-1.2c2.1-2,4.3-4.1,6.5-6l0,0c8.8-29.6,37.3-47.7,69.3-47.7
			c12.9,0,25.6,3.7,36.7,10.4c11.2,6.9,18.9,13.6,24.9,25.4l0.1,0.2c0.1,0.3,0.3,0.6,0.5,0.9l0,0h0.1c5,3.1,9.8,6.5,14.3,10.3
			c1.5,1.3,3,2.6,4.4,3.9c0.5,0.4,1,0.9,1.4,1.3v-0.1c0,0,0,0,0-0.1c0.1-0.3,0.3-0.7,0.5-1c4.5-28.4,18.8-43.9,33.6-43.9
			c11.2,0,19.2,6.7,25.4,24.5l0.1,0.2l0,0c1.8,2,3.5,4,5,6.2l0,0c0,0.1,0.1,0.1,0.1,0.1l0,0l0,0c0.1,0.3,0.1,0.5,0.3,0.8l0,0l-0.2-1
			c-18.4-54.5-69.9-93.7-130.6-93.7c-76.1,0-137.8,61.7-137.8,137.8c0,15,2.4,29.4,6.9,42.9v-0.1
			C195.7,360.6,197.8,353.5,200.4,346.6"/>
		<path class="st6" d="M457.7,326.6l-4.8,5.4l0,0v0.1c-0.2,0.7-0.4,1.4-0.7,2c-0.1,0.1-0.1,0.3-0.2,0.5c-0.2,0.4-0.4,0.9-0.6,1.3
			c-0.1,0.2-0.2,0.4-0.3,0.6c-0.2,0.3-0.4,0.6-0.6,0.9c-0.3,0.4-0.6,0.7-1,1.1c-0.1,0.1-0.3,0.3-0.4,0.4c-0.3,0.3-0.7,0.5-1.2,0.7
			c-0.7,0.3-1.4,0.5-2.2,0.5c-4.4,0-7.9-6.1-7.9-13.5H422l0,0c3,3.5,5.9,6.9,8.8,10.5c2.8,3.4,5.5,6.8,8.2,10.3l0.4,0.5
			c2.6,3.3,5.1,6.6,7.6,9.9l0.7,1c2.7,3.5,5.3,7.1,8,10.6c4.6-13.7,7.1-28.2,7.2-42.6l-4.5-0.1L457.7,326.6"/>
		<path d="M304.1,262.9c0.3,0,0.7-0.1,1.1-0.1c2.4-0.2,5-0.3,7.4-0.3c7.5,0,14.8,0.8,21.9,2.2l0,0c5,1.2,13.9,3.6,20.5,6.4
			c2.8,1.2,5.5,2.4,8.2,3.8l0.6,0.3l0.1,0.1c0.3,0.1,0.5,0.3,0.8,0.5l0,0l1.2,0.7l0.1,0.1c1.7,1,3.6,2,4.3,2.4l0.2,0.1l0.1,0.1
			c-0.1-0.3-0.3-0.6-0.5-0.9l-0.1-0.2c-6-11.8-15.1-21.8-26.4-28.7c-10.9-6.7-23.7-10.4-36.7-10.4c-32,0-59,21.6-67.8,51.1
			c8.4-7.1,17.7-13.1,27.7-17.7C278.7,267.2,291.3,263.9,304.1,262.9"/>
		<path class="st7" d="M455.6,281.1L455.6,281.1L455.6,281.1c0-0.1-0.1-0.1-0.1-0.1l0,0c-1.6-2.2-3.3-4.2-5-6.2l-0.1-0.1
			c-0.7-0.8-1.6-1.6-2.4-2.4c-0.3-0.3-0.6-0.5-1-0.8c-0.5-0.5-1-1-1.5-1.4v18.3l7,32l0,0c0.1,0.3,0.1,0.5,0.2,0.7l4.8,5.4l0.1-0.1
			h5.1c0-0.5,0.1-1,0.1-1.4l0,0c0-14.7-2.4-29.3-7-43.3l0,0C455.8,281.6,455.8,281.3,455.6,281.1"/>
		<path d="M406.2,272.6c5.6-5.5,13.1-9.9,21.2-9.9c6.4,0,12.5,2.6,18.2,7.3v0.1l0,0l0,0c0.5,0.4,1,0.9,1.5,1.4
			c0.3,0.3,0.6,0.5,1,0.8c0.8,0.8,1.6,1.6,2.4,2.4l0.1,0.1l0,0l0,0l-0.1-0.2c-6.1-17.9-16-29.5-27.1-29.5
			c-14.8,0-27.3,20.5-31.8,48.9l0.1-0.1C395.3,286.2,400.1,278.6,406.2,272.6 M386.3,447.4c0,0-2-1.6-4.5-4.5
			c-1.2-1.4-2.2-2.8-3.3-4.2c-0.3-0.5-0.6-1-1-1.4c-1-1.5-1.7-3.3-2.6-5.2c-1-2.1-1-3.5-1.6-5.4c-0.4-1.4-0.7-2.9-1-4.4
			c-0.4-2.4-0.5-4.8-0.5-7.3c0.1-1.4,0.2-2.9,0.4-4.4c0.2-1.5,0.5-2.9,0.9-4.4c1.1-4.5,3.1-9.2,6.1-14.2l0.7-1.7
			c1-1.6,1.2-1.6,2.1-3.1c13.1-22.2,20.3-39,16.8-64.8c-0.4-2.7-0.8-5.3-1.3-7.9c-0.3,1.9-0.6,3.8-1,5.7c-0.1,0.6-0.5,1.2-0.6,1.6
			c-5.7,16.9-14.7,29.3-27.6,43.4c-1.8,2-3.6,3.9-5.4,5.8c-3.3,3.4-6.6,6.8-10,10.1c-1.4,1.4-2.9,2.8-4.3,4.2c-1.4,1.3-3,4.1-5,6.3
			c-1.2,3.4-2.6,7.3-3.8,11.4c-0.5-0.2-1-0.4-1.6-0.6c-25.2-9.7-42-22.7-42-22.7s12.9,16.9,34.8,32.7c2,1.4,4.1,2.8,6.3,4
			c-0.9,14.2,5.4,27.9,33.7,32c4.8,0.7,9.7,0.7,14.6,0.1c-0.1-0.1,0.3-0.1,0.3-0.2s0.3-0.3,0.3-0.3"/>
		<path class="st12" d="M371,410.7c25.2,4.1,62.4,3.4,101.1-14.7c1-0.4,2,0.7,2.9,0.3c0,0-26.5,27-58,42.3c-1,0.5-1.8,1-2.8,1.4
			c-3.1,1.4-6.1,2.6-9.2,3.7c-6.1,2.2-12.3,3.9-18.4,4.6c-0.3,0.1-0.5,0.1-0.8,0.1c-0.1-0.1-0.1-0.2-0.1-0.3l-0.1-0.1
			c0,0-2-1.6-4.5-4.5c-1.2-1.4-2.2-2.8-3.3-4.2c-1.4-2-2.7-4.2-3.7-6.5c-0.9-1.9-1.6-3.9-2.2-5.9c-1.1-3.8-1.6-7.8-1.4-11.6
			c0.1-1.4,0.2-2.9,0.4-4.4L371,410.7"/>
		<path class="st11" d="M353,382.1c3.3-3.3,6.7-6.7,10-10.1c1.8-1.9,3.7-3.8,5.4-5.8c12.9-14,22.4-27.2,28.2-44.1
			c0.1-0.4,0.3-1,0.4-1.5l0.1-0.3c0.1-0.6,0.3-1.4,0.4-2.1c0.1-0.5,1.8-1.6,1.8-2.2c-1.4-7.3-4.8-15.1-8.4-21v0.1l-0.1-0.1
			c-0.5-0.5-1-0.9-1.4-1.3c-1.4-1.4-2.9-2.7-4.4-3.9c-4.5-3.8-9.2-7.3-14.3-10.3c0.3,4.1,0.4,8.3,0.5,12.4c0,0.5,0,1,0,1.4
			c0,1.6,0,3.2,0,4.8c-0.1,2-0.1,4.1-0.2,6.2c-0.1,1.5-0.2,3.1-0.3,4.6c0,0.1,0,0.3-0.1,0.5c-0.5,5.8-1.2,11.5-2.2,17.1l-1.8,8.6
			c-3.8,15.4-11.5,29.4-17.8,43.8c-1.7,3.8-3.3,7.7-4.7,11.6l-0.4,1.1c1.6-1.8,3.3-3.5,5.1-5.2C350.2,384.8,351.7,383.4,353,382.1"
			/>
		<path class="st2" d="M269.9,464.8c9.2-4.1,17.7-6.7,27.9-8.6c-0.1-2.2-0.1-4.4-0.3-6.6c4.4-11.2,8.4-22.6,12-34.1
			c-6.5,0.6-12.9,1.6-19.2,3c-4.7,1-9.4,2.2-13.9,3.7c-3.7,1.1-7.3,2.4-10.9,3.7l14.3,3.5L268,465.6L269.9,464.8"/>
		<path class="st13" d="M446.9,357.6c-2.5-3.3-5-6.6-7.6-9.9l-0.4-0.5c-2.7-3.5-5.5-6.9-8.3-10.4c-2.9-3.5-5.8-6.9-8.7-10.3
			c-0.2-0.2-0.3-0.4-0.5-0.7c-2.4-2.8-4.9-5.6-7.4-8.3c-1.5-1.6-3.1-3.3-4.6-5c-1.2-1.3-2.4-2.5-3.7-3.7c-1.2-1.2-2.3-2.4-3.5-3.5
			c-2.5-2.5-5.1-5-7.7-7.3c-1.2-1.1-2.3-2.1-3.5-3.1c0,0,0,0,0,0.1c2.5,7.1,5.3,14.4,6.7,21.9c0.3,2,0.7,3.8,1,5.6
			c3.5,25.8-4.8,42.7-18,64.9c-1,1.6-1.9,3.3-2.9,4.8c-3,5-5,9.8-6.1,14.2c-0.3,1.4-0.6,2.9-0.9,4.4c25.8,4.1,64.5,5,104.3-14.6
			c0,0-7.8-11.4-19.5-27.1c-2.7-3.5-5.2-7-7.9-10.5C447.5,358.3,447.2,357.9,446.9,357.6"/>
		<path class="st3" d="M266.7,472.1l12.9-42.6l-14.3-3.5c-3.2,1.2-6.4,2.5-9.5,3.9l-12.8,42.2l14.3,0.2L266.7,472.1"/>
		<path class="st6" d="M275.7,453.6c1.3,0.5,2.5,1,3.8,1.4c14.6,5.2,30.1,7.8,45.6,7.8c17.6,0,35.1-3.4,51.5-10
			c0.8-0.3,1.6-0.7,2.5-1.1c1.4-0.5,2.7-1.2,4-1.8c1.2-0.5,2.4-1.1,3.5-1.7c-0.3,0.1-0.5,0.1-0.8,0.1c-5,0.5-9.9,0.6-14.6-0.1
			c-28.4-4.1-34.6-17.7-33.7-32c-2.2-1.2-4.2-2.6-6.3-4c-21.9-15.8-34.8-32.7-34.8-32.7s16.8,13,42,22.7c0.5,0.2,1,0.4,1.6,0.6
			c1.2-4.1,2.6-7.9,3.8-11.4l0.4-1.1c1.4-3.9,3-7.8,4.7-11.6c6.3-14.4,14.1-28.4,17.8-43.8l1.8-8.6H353l0,0l0,0l0,0
			c0,0.1,0,0.1,0,0.1c0,3.7-1.1,7.3-3.2,10.3c-2,3-4.8,5.3-8.2,6.7c-2.9,1.2-6.1,1.7-9.1,1.4c-0.1,0-0.3-0.1-0.4-0.1
			c-0.5-0.1-1-0.1-1.4-0.2c-0.1,0-0.3-0.1-0.4-0.1c-0.5-0.1-1-0.2-1.4-0.4c-0.1,0-0.1-0.1-0.3-0.1c-0.5-0.2-1-0.3-1.5-0.5
			c-0.1,0-0.1-0.1-0.1-0.1c-0.5-0.2-1-0.5-1.6-0.7l0,0c-1.6-0.9-3.1-2-4.3-3.3l-53.1-13h-58c-0.3,0.5-0.5,0.9-0.7,1.3
			c-0.5,0.8-0.9,1.6-1.3,2.4c-1.4,2.7-2.8,5.4-4,8.2c-1.2,2.6-2.2,5.2-3.3,7.9l-0.1,0.3c-2.7,6.9-4.8,14.1-6.3,21.3
			c9.1,27.8,26.9,51.8,50.1,68.6c0.7,0.5,1.4,1,2,1.4c3.9,2.8,8,5.3,12.2,7.6C264,448.6,269.8,451.4,275.7,453.6"/>
		<path class="st14" d="M414.8,486.6c-0.3-3.7-0.5-7.4-0.5-11.1c0-2.2-1.8-4.1-4.1-4.1H239.5c-2.2,0-4.1,1.8-4.1,4.1
			c0,3.7-0.2,7.4-0.5,11.1c-0.4,4-1,8-1.8,12c2.4,1.3,5,2.6,7.5,3.8c1.7-7.4,2.7-15,3-22.5c0-0.1,0-0.2,0-0.3h162.6
			c0,0.1,0,0.2,0,0.3c0.3,7.6,1.3,15.2,3,22.5c2.5-1.2,5-2.4,7.5-3.8C415.8,494.6,415.1,490.6,414.8,486.6"/>
	</g>
</g>
</svg>
