<?xml version="1.0" encoding="utf-8"?>
<!-- Generator: Adobe Illustrator 22.1.0, SVG Export Plug-In . SVG Version: 6.00 Build 0)  -->
<svg version="1.1" id="Calque_1" xmlns="http://www.w3.org/2000/svg" xmlns:xlink="http://www.w3.org/1999/xlink" x="0px" y="0px"
	 viewBox="0 0 649.5 649.5" style="enable-background:new 0 0 649.5 649.5;" xml:space="preserve">
<style type="text/css">
	.st0{fill:#342851;stroke:#E22A74;stroke-width:33.9667;stroke-miterlimit:10;}
	.st1{fill:#A5DBE8;}
	.st2{fill:#525353;}
	.st3{fill:#AA9678;}
	.st4{fill:#C4B6A1;}
	.st5{fill:#786453;}
	.st6{fill:#FFFFFF;}
	.st7{fill:#BBBCBD;}
	.st8{fill:#676A6A;}
	.st9{fill:#909393;}
	.st10{fill:#E3DDDB;}
	.st11{fill:#FCB03F;}
	.st12{fill:#9F2254;}
	.st13{fill:#DF0067;}
	.st14{fill:#8B7460;}
</style>
<g>
	<circle class="st0" cx="324.8" cy="324.8" r="305.7"/>
	<g>
		<path class="st1" d="M223.2,479.3c4.6-2.1,9.3-3.9,14-5.7c5.3-2,10.7-3.9,16.1-5.5c6.8-2,13.6-3.9,20.5-5.4
			c9.3-2,18.8-3.4,28.3-4.4c-5.4,16.9-11.3,33.5-17.6,50.1c0.3,3.2,0.4,6.5,0.5,9.7c13.1-2.6,26.4-3.9,39.8-3.9
			c13.6,0,26.9,1.4,39.8,3.9c0.1-3.2,0.2-6.5,0.5-9.7c-6.4-16.5-12.3-33.2-17.6-50.1c9.5,0.9,19,2.4,28.3,4.4
			c6.9,1.5,13.8,3.3,20.5,5.4c5.4,1.6,10.8,3.5,16.1,5.5c4.7,1.8,9.4,3.7,14,5.7c33.4,14.8,63.1,36.8,87.1,64.3
			c61.4-53,100.3-131.3,100.3-218.8c0-159.6-129.4-289-289-289s-289,129.4-289,289c0,87.4,38.9,165.8,100.3,218.8
			C160.1,516,189.8,494.1,223.2,479.3"/>
		<path class="st2" d="M426.5,479.3l17.9,61.7l5.1,0.2c3.3,0,5.6,0.9,5.6,4.2c0,5.5,0.3,11.7,0.8,17c4.5,3.8,9.9,8.1,14,12.2
			c15.5-9,30-19.4,43.6-31.1C489.5,516,459.8,494.1,426.5,479.3 M391.4,478.7l21.1-5.1c-5.3-2-10.7-3.9-16.1-5.5
			c-6.8-2-13.6-3.9-20.5-5.4c-9.3-2-18.8-3.4-28.3-4.4c5.4,16.9,11.3,33.5,17.6,50.1c-0.3,3.2-0.4,6.5-0.5,9.7
			c14.9,2.9,29.6,8.1,43.2,14.1L391.4,478.7"/>
		<path d="M179.6,574.7c3.4,2,6.7,3.9,10.2,5.7c1.2-5.8,3.1-13.8,3.7-19.8C189.1,564.4,183.8,570.5,179.6,574.7 M407.4,531.6
			c-13.7-6.1-28.1-10.6-42.8-13.5c-13.1-2.6-26.4-3.9-39.8-3.9c-13.6,0-26.9,1.4-39.8,3.9c-14.9,2.9-30.5,7.4-44.1,13.4l-1.4,9
			h170.6L407.4,531.6"/>
		<path class="st2" d="M193,562.3c0.5-5.4,0.9-10.2,0.9-15.7c0-3.3,2.3-5.4,5.6-5.4l5.4-0.2l18.2-61.7
			c-33.4,14.8-63.1,36.8-87.1,64.3c13.5,11.7,28.1,22.1,43.6,31.1c4.1-4.2,8.4-8.1,12.9-11.9"/>
		<path d="M458.1,573.3c1.2,5.9,1.4,7,1.6,7.1c3.4-1.8,6.8-3.7,10.2-5.7c-4.2-4.2-8.5-8.2-13-12.1L458.1,573.3"/>
		<path class="st3" d="M407.4,531.6l2.7,8.9H445l-18.5-61.2c-4.6-2-9.3-4-14-5.7l-21.1,5.1L407.4,531.6"/>
		<path class="st4" d="M205.2,552.8c0.2-0.1,0.4-0.3,0.5-0.4h-0.5C205.2,552.5,205.2,552.6,205.2,552.8"/>
		<path class="st3" d="M444.4,552.4h-0.5l0.5,0.4C444.4,552.6,444.4,552.5,444.4,552.4"/>
		<path class="st3" d="M443.8,551.5l-119.2,0.1l0.2,62.2c44.4,0,86.4-10,123.9-27.9c-2.5-10.8-2.7-22.4-3.1-33.7
			C445.5,552.1,443.8,551.5,443.8,551.5"/>
		<path class="st4" d="M324.6,551.9c0,0-119.9-0.2-120,0c-0.4,11.3-2.7,24.7-3.7,34c37.6,17.9,79.6,27.9,123.9,27.9l0.1-61.7
			L324.6,551.9"/>
		<path class="st5" d="M324.8,546.4L324.8,546.4l0,6h0V546.4z"/>
		<path class="st2" d="M407.5,499.2"/>
		<path class="st3" d="M414.2,505.8l0.1,0.2L414.2,505.8c0,0-2.9-2.3-6.6-6.6C411.3,503.5,414.2,505.8,414.2,505.8"/>
		<path class="st6" d="M502.5,244.3L502.5,244.3L502.5,244.3 M514.1,327.5L514.1,327.5L514.1,327.5"/>
		<path class="st7" d="M514.1,327.4L514.1,327.4L514.1,327.4"/>
		<path class="st8" d="M513.8,322.9c0,0.1,0,0.1,0,0.2c0,0,0,0.1,0,0.1v0c0.1,1.1,0.2,2.3,0.2,3.4c0,0.2,0,0.4,0,0.6l0,0.1l0,0.1
			c0,0.2,0,0.4,0,0.7c0,1.1-0.1,2.2-0.2,3.4v0l0,0.2c0,0.1,0,0.2,0,0.3c-0.2,1.2-0.4,2.3-0.6,3.4l0,0v0l0,0l0-0.1v0l7.6-7.9l-7.6-8
			l0,0C513.4,320.5,513.6,321.7,513.8,322.9"/>
		<path d="M513.8,332c0-0.1,0.1-0.3,0.1-0.4c0.1-1.1,0.2-2.2,0.2-3.4c0-0.3,0-0.5,0-0.8c0-0.2,0-0.5,0-0.7c0-1.1-0.1-2.3-0.2-3.4
			c0-0.1-0.1-0.2-0.1-0.4c-0.2-1.2-0.4-2.3-0.7-3.5c-0.1-0.4-0.2-0.7-0.4-1.1c-0.7-2.3-1.6-4.3-2.7-5.9c-0.4-0.6-0.9-1.2-1.4-1.8
			c-0.5-0.5-1-1-1.5-1.4c-0.2-0.2-0.4-0.3-0.6-0.4c-0.6-0.4-1.3-0.7-2-1c-0.7-0.2-1.4-0.3-2.1-0.4c-0.7,0-1.4,0.1-2.1,0.4
			c-0.7,0.2-1.4,0.6-2,1c-0.2,0.1-0.4,0.2-0.6,0.4c-0.9,0.7-1.7,1.6-2.4,2.5c-0.2,0.2-0.3,0.4-0.5,0.7c-1.1,1.7-2,3.7-2.7,5.9
			l-0.1,0.3c-0.3,1-0.5,2.1-0.7,3.3c-0.1,0.3-0.1,0.7-0.2,1c-0.2,1.3-0.3,2.6-0.3,3.9c0,0.2,0,0.4,0,0.5h0c0,11,5.2,19.9,11.6,19.9
			c1.1,0,2.2-0.3,3.2-0.8c0.6-0.3,1.2-0.7,1.7-1.1c0.2-0.2,0.4-0.4,0.6-0.6c0.5-0.5,1-1,1.5-1.6c0.3-0.4,0.6-0.8,0.9-1.3
			c0.2-0.3,0.4-0.6,0.5-0.9c0.3-0.6,0.6-1.2,0.9-1.9c0.1-0.2,0.2-0.5,0.3-0.7c0.4-0.9,0.7-1.9,0.9-2.9
			C513.4,334.3,513.6,333.2,513.8,332L513.8,332z M502.9,324.8c-2.4,0-4.4-3.3-4.4-7.5c0-4.1,2-7.5,4.4-7.5s4.4,3.3,4.4,7.5
			C507.3,321.4,505.3,324.8,502.9,324.8z"/>
		<path class="st6" d="M502.9,309.8c-2.4,0-4.4,3.3-4.4,7.5c0,4.1,2,7.5,4.4,7.5s4.4-3.3,4.4-7.5
			C507.3,313.2,505.3,309.8,502.9,309.8"/>
		<path class="st9" d="M492.2,318.3c0.7-2.3,1.6-4.3,2.7-5.9c0.1-0.2,0.3-0.4,0.5-0.7c0.7-1,1.5-1.8,2.4-2.5
			c0.2-0.2,0.4-0.3,0.6-0.4c0.6-0.4,1.3-0.7,2-1c0.7-0.2,1.4-0.4,2.1-0.4s1.4,0.1,2.1,0.4c0.7,0.2,1.4,0.6,2,1
			c0.2,0.1,0.4,0.2,0.6,0.4c0.5,0.4,1,0.9,1.5,1.4c0.5,0.6,1,1.2,1.4,1.8c1.1,1.7,2,3.7,2.7,5.9v0l-10.3-47.1L492.2,318.3
			L492.2,318.3"/>
		<path d="M366.1,327c0-0.9-0.1-1.9-0.2-2.8c0,0,0,0,0,0c-0.1-0.9-0.3-1.8-0.5-2.7l0-0.1c-0.2-0.9-0.4-1.7-0.7-2.6l0-0.1
			c-0.3-0.8-0.6-1.7-1-2.5c0,0,0,0,0,0c-2.9-6.4-8.1-11.4-14.5-14.1l-0.1,0c-1.6-0.6-3.2-1.1-4.9-1.5c0,0-0.1,0-0.1,0
			c-1.7-0.3-3.5-0.5-5.2-0.5c-1.8,0-3.5,0.2-5.1,0.5l-0.2,0c-1.7,0.3-3.3,0.8-4.8,1.4l-0.1,0c-1.6,0.6-3,1.4-4.4,2.3
			c-1.4,0.9-2.7,1.9-3.9,3.1l0,0.1l-0.1,0c-1.9,1.9-3.6,4-4.9,6.3l0,0.1c-0.4,0.7-0.8,1.5-1.1,2.2c0,0.1-0.1,0.2-0.1,0.2
			c-0.3,0.7-0.6,1.4-0.8,2.2c0,0.1-0.1,0.3-0.2,0.4c-0.2,0.7-0.4,1.4-0.6,2.1c0,0.2-0.1,0.4-0.2,0.6c-0.1,0.7-0.2,1.4-0.3,2.1
			c0,0.2-0.1,0.4-0.1,0.6c-0.3,2.7-0.2,5.4,0.4,8.1c0,0,0,0.1,0,0.1c0.3,1.7,0.8,3.3,1.5,4.9c0,0,0,0,0,0.1c1.3,3.2,3.2,6,5.5,8.5
			c1.9,1.9,4,3.6,6.3,4.9l0,0c0.7,0.4,1.5,0.8,2.3,1.1c0.1,0,0.1,0.1,0.2,0.1c0.7,0.3,1.5,0.6,2.2,0.8c0.1,0,0.2,0.1,0.4,0.1
			c0.7,0.2,1.4,0.4,2.1,0.6c0.2,0,0.4,0.1,0.6,0.1c0.7,0.1,1.4,0.2,2.1,0.3c0.2,0,0.4,0.1,0.6,0.1c6.4,0.7,12.7-0.9,18-4.5
			c2.9-2,5.4-4.5,7.4-7.4c3-4.5,4.7-9.8,4.7-15.2c0-0.1,0-0.1,0-0.2C366.1,327.1,366.1,327.1,366.1,327L366.1,327z M338.9,323.8
			c-5.6,0-10.2-4.6-10.2-10.2c0-5.6,4.6-10.2,10.2-10.2s10.2,4.6,10.2,10.2C349.1,319.2,344.6,323.8,338.9,323.8z"/>
		<path class="st6" d="M338.9,303.3c-5.6,0-10.2,4.6-10.2,10.2c0,5.6,4.6,10.2,10.2,10.2c0,0,0,0,0,0c5.6,0,10.2-4.6,10.2-10.2
			C349.1,307.9,344.6,303.3,338.9,303.3"/>
		<path class="st7" d="M320.2,307.6l0.1,0l0-0.1l18.8-57.4v-13.4l0-0.2c-10.6-2.2-21.4-3.3-32.2-3.3c-3.7,0-7.3,0.2-10.9,0.4
			c-0.5,0-1.1,0.1-1.6,0.1c-18.8,1.4-37.4,6.3-54.5,14.2c-14.7,6.7-28.4,15.6-40.7,26.1v0l0,0c-3.3,2.8-6.5,5.8-9.6,8.8
			c-0.6,0.6-1.2,1.1-1.7,1.7c-2.9,2.9-5.7,6-8.4,9.1c-0.6,0.7-1.2,1.4-1.8,2.1c-2.7,3.2-5.4,6.5-7.9,9.9c-0.2,0.3-0.4,0.6-0.6,0.9
			c-2.4,3.3-4.7,6.6-6.9,10c-0.4,0.7-0.9,1.3-1.3,2c-1.8,2.8-3.4,5.7-5.1,8.6h85.4L320.2,307.6"/>
		<path class="st10" d="M392.3,301.2c0.2-2.2,0.3-4.5,0.4-6.7c0.2-3,0.3-6.1,0.3-9.1c0-2.4,0-4.7,0-7.1c0-0.7,0-1.4,0-2
			c-0.1-6.1-0.3-12.2-0.7-18.2l-0.1,0l0,0c-2.3-1.3-4.5-2.6-6.8-3.9l-0.2-0.1l-1.8-1l0,0l-1.2-0.7l-0.2-0.1
			c-0.3-0.2-0.6-0.3-0.9-0.5c-3.9-2-7.9-3.9-12-5.6c-9.7-4.1-22.8-7.7-30.2-9.4v13.6l18.6,57.4l0,0c1.9,1.8,3.6,3.9,4.9,6.2v0
			c0.4,0.8,0.8,1.5,1.2,2.3c0,0,0,0,0,0c0.4,0.8,0.7,1.6,1,2.5l0,0.1c0.3,0.8,0.5,1.7,0.7,2.6l0,0.1c0.2,0.9,0.3,1.8,0.5,2.7
			c0,0,0,0,0,0c0.1,0.9,0.2,1.9,0.2,2.8l0.1,0.2h22.8c1.5-8.4,2.6-16.8,3.3-25.2C392.3,301.7,392.3,301.4,392.3,301.2"/>
		<path class="st11" d="M422.1,280.9C422,280.9,422,280.9,422.1,280.9L422.1,280.9"/>
		<path class="st9" d="M320.3,307.5c1.2-1.1,2.5-2.2,4-3.1c1.4-0.9,2.9-1.7,4.4-2.3c0,0,0.1,0,0.1,0c1.5-0.6,3.1-1.1,4.8-1.4l0.2,0
			c1.7-0.3,3.4-0.5,5.1-0.5c1.8,0,3.5,0.2,5.2,0.5c0,0,0.1,0,0.1,0c1.7,0.3,3.4,0.8,5,1.5c3.1,1.3,6,3.2,8.5,5.5l0,0l-18.6-57.4
			L320.3,307.5"/>
		<path class="st8" d="M313.7,337.7c-0.7-1.6-1.1-3.2-1.5-4.9c0,0,0-0.1,0-0.1c-0.5-2.7-0.7-5.4-0.4-8.1c0-0.2,0.1-0.4,0.1-0.6
			c0.1-0.7,0.2-1.4,0.3-2.1c0-0.2,0.1-0.4,0.2-0.6c0.2-0.7,0.3-1.4,0.6-2.1c0-0.1,0.1-0.3,0.2-0.4c0.2-0.7,0.5-1.5,0.8-2.2
			c0-0.1,0.1-0.2,0.1-0.2c0.3-0.8,0.7-1.5,1.1-2.2l0-0.1c1.3-2.3,3-4.5,4.9-6.3l-78.9,19.5h-0.2l78.1,19.1
			C316.9,343.8,315,340.9,313.7,337.7C313.7,337.7,313.7,337.7,313.7,337.7"/>
		<path class="st10" d="M491.2,322.9c0-0.4,0.1-0.7,0.2-1c0.2-1.1,0.4-2.2,0.7-3.3c0-0.1,0-0.3,0.1-0.4l10.3-47.1l0-26.9
			c-8.4-6.9-17.4-10.7-26.8-10.7c-11.8,0-22.9,6.5-31.2,14.6c-9,8.8-16,20-21.7,31.2c-0.3,0.5-0.5,1-0.8,1.5c1.7,1.5,3.5,3,5.2,4.6
			c3.8,3.5,7.6,7.1,11.3,10.8c1.7,1.7,3.4,3.4,5.1,5.2c1.8,1.8,3.6,3.7,5.4,5.5c3.3,3.4,6.5,6.9,9.6,10.4c2.7,3,5.4,6,8,9.1l0,0
			c0.4,0.5,0.8,0.8,0.9,0.9h23.2c0-0.2,0-0.4,0-0.5C490.9,325.4,491,324.1,491.2,322.9 M422.1,281L422.1,281L422.1,281l0,0.1
			C422.1,281,422.1,281,422.1,281"/>
		<path class="st2" d="M141.9,356.8l0.2-0.5c3.1-8.1,6.7-16,10.8-23.6c0.6-1.2,1.2-2.4,1.9-3.6c0.4-0.7,0.8-1.3,1.1-1.9
			c1.6-2.9,3.3-5.8,5.1-8.6c0.4-0.7,0.9-1.3,1.3-2c2.2-3.4,4.5-6.8,6.9-10c0.2-0.3,0.4-0.6,0.6-0.9c2.5-3.4,5.2-6.7,7.9-9.9
			c0.6-0.7,1.2-1.4,1.8-2.1c2.7-3.1,5.5-6.1,8.4-9.1c0.6-0.6,1.2-1.1,1.7-1.7c3.1-3,6.3-6,9.6-8.8l0,0c13-43.5,54.9-70.2,101.9-70.2
			c18.9,0,37.7,5.5,53.9,15.3c16.5,10.1,27.8,20,36.6,37.3l0.1,0.3c0.2,0.4,0.5,0.9,0.7,1.3l0,0l0.1,0c7.4,4.5,14.4,9.6,21,15.2
			c2.2,1.9,4.4,3.8,6.5,5.8c0.7,0.6,1.4,1.3,2.1,1.9c0,0,0-0.1,0-0.1c0,0,0,0,0-0.1c0.2-0.5,0.5-1,0.7-1.5
			c6.6-41.8,27.7-64.6,49.4-64.6c16.4,0,28.3,9.8,37.3,36.1l0.1,0.3l0,0c2.7,2.9,5.1,5.9,7.4,9.1l0,0c0,0.1,0.1,0.1,0.1,0.2l0,0l0,0
			c0.1,0.4,0.2,0.8,0.4,1.2v0l-0.3-1.4c-27.1-80.1-102.8-137.8-192.1-137.8c-111.9,0-202.7,90.7-202.7,202.7
			c0,22.1,3.5,43.3,10.1,63.1l0-0.1C134.9,377.5,138,367,141.9,356.8"/>
		<path class="st6" d="M520.3,327.4l-7.1,7.9v0l0,0.1c-0.3,1-0.6,2-1,2.9c-0.1,0.2-0.2,0.5-0.3,0.7c-0.3,0.6-0.6,1.3-0.9,1.9
			c-0.2,0.3-0.3,0.6-0.5,0.9c-0.3,0.5-0.6,0.9-0.9,1.3c-0.4,0.6-0.9,1.1-1.5,1.6c-0.2,0.2-0.4,0.4-0.6,0.6c-0.5,0.4-1.1,0.8-1.7,1.1
			c-1,0.5-2.1,0.8-3.2,0.8c-6.4,0-11.6-8.9-11.6-19.9h-23.3l0,0c4.4,5.1,8.7,10.2,12.9,15.4c4.1,5,8.1,10,12.1,15.1l0.6,0.7
			c3.8,4.8,7.5,9.7,11.2,14.5l1.1,1.4c3.9,5.2,7.8,10.4,11.7,15.6c6.8-20.2,10.4-41.4,10.6-62.7l-6.6-0.2L520.3,327.4"/>
		<path d="M294.4,233.8c0.5,0,1.1-0.1,1.6-0.1c3.6-0.3,7.3-0.4,10.9-0.4c11,0,21.7,1.2,32.2,3.3h0c7.4,1.7,20.5,5.3,30.2,9.4
			c4.1,1.7,8.1,3.6,12,5.6l0.9,0.5l0.2,0.1c0.4,0.2,0.8,0.4,1.2,0.7l0,0l1.8,1l0.2,0.1c2.5,1.4,5.3,3,6.3,3.6l0.3,0.2l0.2,0.1
			c-0.2-0.4-0.5-0.9-0.7-1.3l-0.1-0.3c-8.8-17.3-22.2-32.1-38.8-42.2c-16.1-9.9-34.9-15.3-53.9-15.3c-47,0-86.7,31.7-99.7,75.2
			c12.3-10.5,26-19.3,40.7-26.1C257,240.1,275.6,235.2,294.4,233.8"/>
		<path class="st7" d="M517.2,260.5L517.2,260.5L517.2,260.5c0-0.1-0.1-0.1-0.1-0.2l0,0c-2.3-3.2-4.8-6.2-7.4-9.1l-0.1-0.1
			c-1.1-1.2-2.3-2.4-3.5-3.6c-0.4-0.4-0.9-0.8-1.4-1.2c-0.7-0.7-1.5-1.4-2.2-2v26.9l10.3,47.1v0c0.1,0.4,0.2,0.7,0.3,1.1l7.1,8
			l0.1-0.1h7.5c0-0.7,0.1-1.4,0.1-2.1v0c0-21.6-3.5-43.1-10.3-63.6v0C517.5,261.3,517.4,260.9,517.2,260.5"/>
		<path d="M444.5,248.1c8.3-8.1,19.3-14.6,31.2-14.6c9.4,0,18.4,3.8,26.8,10.7l0,0.1v0v0c0.8,0.6,1.5,1.3,2.2,2
			c0.4,0.4,0.9,0.8,1.4,1.2c1.2,1.2,2.4,2.4,3.5,3.6l0.1,0.1c0,0,0,0,0,0l0,0l-0.1-0.3c-9-26.3-23.5-43.4-39.9-43.4
			c-21.8,0-40.2,30.1-46.8,71.9l0.1-0.1C428.5,268.1,435.5,256.9,444.5,248.1 M415.2,505.1c0,0-2.9-2.3-6.6-6.6
			c-1.7-2-3.3-4.1-4.8-6.2c-0.5-0.7-0.9-1.4-1.4-2.1c-1.4-2.2-2.5-4.9-3.8-7.6c-1.4-3.1-1.4-5.2-2.3-8c-0.6-2.1-1.1-4.3-1.4-6.5
			c-0.6-3.5-0.8-7.1-0.7-10.7c0.1-2.1,0.3-4.2,0.6-6.4c0.3-2.2,0.7-4.3,1.3-6.4c1.6-6.6,4.5-13.5,8.9-20.9l1.1-2.5
			c1.4-2.4,1.8-2.3,3.1-4.6c19.3-32.6,29.8-57.3,24.7-95.3c-0.6-3.9-1.2-7.8-1.9-11.6c-0.4,2.8-0.9,5.6-1.4,8.4
			c-0.2,0.9-0.7,1.8-0.9,2.4c-8.4,24.9-21.6,43.1-40.6,63.8c-2.6,2.9-5.3,5.7-8,8.5c-4.8,5-9.7,10-14.7,14.9c-2.1,2-4.2,4.1-6.3,6.2
			c-2,1.9-4.4,6.1-7.3,9.2c-1.8,5-3.8,10.7-5.6,16.7c-0.8-0.3-1.5-0.6-2.3-0.9c-37-14.3-61.7-33.4-61.7-33.4s19,24.8,51.1,48.1
			c2.9,2.1,6,4.1,9.2,5.9c-1.3,20.9,7.9,41,49.6,47c7.1,1,14.3,1,21.5,0.1c-0.1-0.2,0.4-0.2,0.4-0.3c0-0.1,0.4-0.4,0.4-0.4"/>
		<path class="st12" d="M392.8,451.1c37,6,91.8,5,148.7-21.6c1.4-0.6,2.9,1,4.3,0.4c0,0-38.9,39.7-85.3,62.2c-1.4,0.7-2.7,1.4-4.1,2
			c-4.5,2.1-9,3.8-13.6,5.5c-9,3.2-18.1,5.7-27.1,6.8c-0.4,0.1-0.8,0.1-1.2,0.2c-0.1-0.2-0.1-0.3-0.2-0.5l-0.1-0.2
			c0,0-2.9-2.3-6.6-6.6c-1.7-2-3.3-4.1-4.8-6.2c-2.1-3-3.9-6.2-5.4-9.5c-1.3-2.8-2.4-5.7-3.2-8.7c-1.6-5.6-2.3-11.4-2.1-17.1
			c0.1-2.1,0.3-4.3,0.6-6.4L392.8,451.1"/>
		<path class="st11" d="M366.3,409c4.9-4.9,9.8-9.9,14.7-14.9c2.7-2.8,5.4-5.6,8-8.5c19-20.6,33-40,41.4-64.8
			c0.2-0.6,0.4-1.4,0.6-2.2l0.1-0.4c0.2-0.9,0.4-2,0.6-3.1c0.1-0.8,2.6-2.4,2.7-3.2c-2.1-10.8-7-22.2-12.3-30.9c0,0,0,0.1,0,0.1
			L422,281c-0.7-0.7-1.4-1.3-2.1-1.9c-2.1-2-4.3-3.9-6.5-5.8c-6.6-5.6-13.6-10.7-21-15.2c0.4,6.1,0.6,12.2,0.7,18.2c0,0.7,0,1.4,0,2
			c0,2.4,0,4.7,0,7.1c-0.1,3-0.2,6.1-0.3,9.1c-0.1,2.2-0.3,4.5-0.4,6.7c0,0.2,0,0.5-0.1,0.7c-0.7,8.5-1.8,16.9-3.3,25.2l-2.7,12.6
			c-5.6,22.6-16.9,43.2-26.2,64.4c-2.5,5.6-4.8,11.3-6.9,17.1l-0.6,1.6c2.4-2.6,4.9-5.1,7.5-7.6C362.2,413.1,364.3,411,366.3,409"/>
		<path class="st2" d="M244,530.7c13.6-6,26.1-9.8,41-12.7c-0.1-3.2-0.2-6.5-0.5-9.7c6.4-16.5,12.3-33.2,17.6-50.1
			c-9.5,0.9-19,2.4-28.3,4.4c-6.9,1.5-13.8,3.3-20.5,5.4c-5.4,1.6-10.8,3.5-16.1,5.5l21.1,5.1l-17,53.2L244,530.7"/>
		<path class="st13" d="M504.4,373.1c-3.7-4.9-7.4-9.7-11.2-14.5l-0.6-0.7c-4-5.1-8.1-10.2-12.2-15.3c-4.2-5.1-8.5-10.2-12.8-15.2
			c-0.3-0.3-0.5-0.6-0.8-1c-3.6-4.1-7.2-8.2-10.9-12.2c-2.2-2.4-4.5-4.9-6.8-7.3c-1.8-1.9-3.6-3.7-5.4-5.5c-1.7-1.7-3.4-3.5-5.1-5.2
			c-3.7-3.7-7.5-7.3-11.3-10.8c-1.7-1.6-3.4-3.1-5.2-4.6c0,0,0,0,0,0.1c3.7,10.5,7.8,21.2,9.9,32.2c0.5,2.9,1,5.6,1.4,8.3
			c5.1,38-7.1,62.8-26.4,95.4c-1.4,2.4-2.8,4.8-4.3,7.1c-4.4,7.4-7.3,14.4-8.9,20.9c-0.5,2.1-0.9,4.3-1.3,6.4
			c37.9,6.1,94.9,7.3,153.3-21.4c0,0-11.4-16.8-28.7-39.9c-3.9-5.2-7.7-10.3-11.6-15.5C505.2,374,504.8,373.5,504.4,373.1"/>
		<path class="st3" d="M239.3,541.4l19-62.7l-21.1-5.1c-4.7,1.8-9.4,3.7-14,5.7l-18.8,62.1l21,0.3L239.3,541.4"/>
		<path class="st6" d="M252.6,514.2c1.9,0.7,3.7,1.4,5.6,2c21.5,7.6,44.2,11.4,67,11.4c25.9,0,51.6-5,75.7-14.7
			c1.2-0.5,2.4-1,3.7-1.6c2-0.8,4-1.7,5.9-2.6c1.7-0.8,3.5-1.6,5.2-2.5c-0.4,0.1-0.8,0.1-1.2,0.2c-7.3,0.8-14.5,0.9-21.5-0.1
			c-41.7-6-50.9-26.1-49.6-47c-3.2-1.8-6.2-3.8-9.2-5.9C302,430.1,283,405.3,283,405.3s24.7,19.1,61.7,33.4c0.8,0.3,1.5,0.6,2.3,0.9
			c1.7-6,3.8-11.6,5.6-16.7l0.6-1.6c2.1-5.8,4.4-11.5,6.9-17.1c9.3-21.2,20.7-41.7,26.2-64.4l2.7-12.6h-22.8l0,0l0,0l0,0
			c0,0.1,0,0.1,0,0.2c0,5.4-1.6,10.7-4.7,15.2c-3,4.4-7.1,7.8-12,9.9c-4.2,1.8-8.9,2.5-13.4,2c-0.2,0-0.4-0.1-0.6-0.1
			c-0.7-0.1-1.4-0.2-2.1-0.3c-0.2,0-0.4-0.1-0.6-0.1c-0.7-0.2-1.4-0.3-2.1-0.6c-0.1,0-0.2-0.1-0.4-0.1c-0.7-0.3-1.5-0.5-2.2-0.8
			c-0.1,0-0.1-0.1-0.2-0.1c-0.8-0.3-1.5-0.7-2.3-1.1l0,0c-2.3-1.3-4.5-3-6.3-4.9l-78.1-19.1h-85.3c-0.4,0.7-0.8,1.3-1.1,1.9
			c-0.7,1.2-1.3,2.4-1.9,3.6c-2.1,4-4.1,8-5.9,12.1c-1.7,3.8-3.3,7.7-4.8,11.6l-0.2,0.5c-3.9,10.2-7,20.7-9.3,31.3
			c13.4,40.9,39.5,76.1,73.7,100.9c1,0.7,2,1.4,3,2.1c5.8,4.1,11.8,7.8,17.9,11.2C235.4,506.9,243.9,510.9,252.6,514.2"/>
		<path class="st14" d="M457.1,562.7c-0.5-5.4-0.8-10.9-0.8-16.3c0-3.3-2.7-6-6-6H199.4c-3.3,0-6,2.7-6,6c0,5.5-0.3,10.9-0.8,16.3
			c-0.6,5.9-1.5,11.8-2.7,17.6c3.6,1.9,7.3,3.8,11,5.6c2.5-10.9,4-22,4.4-33.1c0-0.1,0-0.3,0-0.4h239.1c0,0.1,0,0.3,0,0.4
			c0.4,11.2,1.9,22.3,4.4,33.1c3.7-1.8,7.4-3.6,11-5.6C458.6,574.5,457.6,568.6,457.1,562.7"/>
	</g>
</g>
</svg>
