<svg xmlns="http://www.w3.org/2000/svg" viewBox="0 0 74.58 74.58"><defs><style>.cls-1,.cls-3{fill:#1f1f21;}.cls-1{stroke:#55c0dd;stroke-miterlimit:10;stroke-width:3.92px;}.cls-2{fill:#55c0dd;}</style></defs><title>react</title><g id="Calque_2" data-name="Calque 2"><g id="Calque_2-2" data-name="Calque 2"><g id="Compétences"><circle class="cls-1" cx="37.29" cy="37.29" r="35.33"/><path class="cls-2" d="M49.52,31.35c-.4-.14-.81-.26-1.22-.38.07-.28.13-.56.19-.84.92-4.49.32-8.1-1.75-9.29s-5.21,0-8.49,2.89c-.32.28-.63.57-.94.87L36.68,24c-3.43-3.05-6.86-4.33-8.93-3.13s-2.56,4.54-1.73,8.8c.09.42.18.84.28,1.25-.48.14-.95.29-1.4.45-4,1.4-6.59,3.59-6.59,5.87S21.07,42,25.25,43.4c.34.12.69.22,1,.32-.11.45-.21.9-.3,1.36-.79,4.18-.17,7.5,1.8,8.64s5.46,0,8.79-2.95c.26-.23.53-.47.79-.73.33.32.68.64,1,.94,3.22,2.78,6.41,3.9,8.38,2.76s2.7-4.75,1.84-9.09c-.07-.33-.14-.67-.23-1l.71-.22c4.35-1.45,7.18-3.78,7.18-6.16s-2.65-4.5-6.75-5.91Z"/><path class="cls-3" d="M48.58,41.88l-.64.2A38.48,38.48,0,0,0,46,37.27a38.1,38.1,0,0,0,1.85-4.74c.38.11.76.23,1.12.36,3.52,1.2,5.66,3,5.66,4.37s-2.32,3.37-6.07,4.62ZM47,45a13.75,13.75,0,0,1,.18,5A3.33,3.33,0,0,1,46,52.33c-1.2.69-3.76-.21-6.51-2.58q-.48-.41-1-.87a37.67,37.67,0,0,0,3.18-4,37.77,37.77,0,0,0,5.14-.79c.08.31.15.62.21.92ZM31.25,52.21a3.33,3.33,0,0,1-2.66.1c-1.2-.69-1.69-3.35-1-6.93q.12-.63.27-1.26a39.1,39.1,0,0,0,5.12.74,39.12,39.12,0,0,0,3.26,4c-.24.22-.48.45-.73.66a13.67,13.67,0,0,1-4.25,2.66ZM25.78,41.87a13.87,13.87,0,0,1-4.43-2.35,3.38,3.38,0,0,1-1.42-2.26c0-1.38,2.07-3.15,5.5-4.34.43-.15.87-.29,1.31-.41a38.43,38.43,0,0,0,1.85,4.79,38.52,38.52,0,0,0-1.87,4.86Zm1.83-12.5c-.71-3.64-.24-6.39,1-7.08s4.07.31,7,2.94c.19.17.38.34.57.53a38.51,38.51,0,0,0-3.23,4,39.93,39.93,0,0,0-5.07.78c-.09-.38-.18-.77-.26-1.17ZM44,33.42c-.37-.64-.76-1.28-1.16-1.9,1.21.15,2.37.36,3.46.6a32.22,32.22,0,0,1-1.21,3.27c-.35-.66-.72-1.32-1.09-2Zm-6.68-6.51a33.05,33.05,0,0,1,2.23,2.7c-1.49-.07-3-.07-4.48,0a34.59,34.59,0,0,1,2.25-2.7Zm-6.72,6.52c-.37.64-.73,1.3-1.07,2-.47-1.12-.88-2.22-1.21-3.28a34.67,34.67,0,0,1,3.44-.59C31.35,32.14,31,32.78,30.59,33.43Zm1.2,9.69c-1.24-.14-2.42-.33-3.5-.56.34-1.09.75-2.21,1.23-3.35.34.66.7,1.31,1.08,2S31.38,42.48,31.79,43.12Zm5.56,4.6c-.76-.83-1.53-1.75-2.28-2.73.73,0,1.47,0,2.22,0s1.54,0,2.29-.05A34.27,34.27,0,0,1,37.35,47.72Zm7.74-8.57a32.77,32.77,0,0,1,1.28,3.34,34.75,34.75,0,0,1-3.54.6c.4-.64.79-1.28,1.16-1.93s.75-1.33,1.1-2Zm-2.5,1.2c-.58,1-1.18,2-1.82,2.94q-1.7.12-3.48.12c-1.18,0-2.33,0-3.43-.11q-1-1.44-1.86-2.94T30.38,37.3q.75-1.56,1.62-3.06h0c.57-1,1.19-2,1.84-2.93,1.12-.09,2.28-.13,3.45-.13s2.34,0,3.46.13c.65.95,1.26,1.93,1.83,2.92s1.13,2,1.64,3.05c-.51,1-1,2.06-1.63,3.07Zm3.34-18.11c1.27.73,1.77,3.69,1,7.57,0,.25-.11.5-.17.75a40,40,0,0,0-5.08-.8,38,38,0,0,0-3.2-4c.28-.27.57-.54.87-.8,2.8-2.43,5.42-3.4,6.61-2.71Z"/><path class="cls-2" d="M37.29,33.87a3.39,3.39,0,1,1-3.39,3.39,3.39,3.39,0,0,1,3.39-3.39"/></g></g></g></svg>